<svg id="Layer_1" data-name="Layer 1" xmlns="http://www.w3.org/2000/svg" viewBox="0 0 500 130"><defs><style>.cls-1{fill:#fff;}.cls-2{fill:#61b4e4;}.cls-3{fill:#7cdfa8;}</style></defs><title>snig_logo</title><path class="cls-1" d="M141.2091,94.13h-0.7528c-8.6145,0-16.56-5.4679-16.56-15.3266a3.1793,3.1793,0,0,1,6.3564.0829c0,5.8821,4.8508,8.9473,10.2871,8.9473h0.8365c6.5234,0,9.4506-3.3138,9.4506-9.1959,0-6.7934-4.7671-8.6987-9.9525-11.5155-8.029-4.308-16.1416-6.5448-16.1416-17.0662,0-8.0361,6.9419-14.1666,15.7234-14.1666h0.8365c8.029,0,15.2215,5.6334,15.2215,13.2553a2.8588,2.8588,0,0,1-3.0109,3.0652,3.313,3.313,0,0,1-3.3452-2.9823c-0.4182-4.0595-3.931-7.042-9.0327-7.042h-0.7528c-6.8579,0-9.2,4.9707-9.2,7.87,0,5.9648,5.1854,7.9532,9.7016,10.2729,8.3636,4.3909,16.3089,7.1248,16.3089,18.3918C157.1834,88.1649,151.2452,94.13,141.2091,94.13Z"/><path class="cls-1" d="M196.204,94.13c-1.2543,0-3.0942,0-4.3489-2.8168L173.6227,50.47V90.9817a3.1783,3.1783,0,0,1-6.3564,0V39.12c0-2.2368,1.84-3.2309,3.7637-3.2309a4.0156,4.0156,0,0,1,4.2653,2.6511L193.444,79.549V39.0373a3.123,3.123,0,0,1,3.2618-3.148,2.9908,2.9908,0,0,1,3.0946,3.148V90.4017A3.3622,3.3622,0,0,1,196.204,94.13Z"/><path class="cls-1" d="M216.7284,94.1107c-3.45,0-6.9008-2.2393-6.9008-6.6V42.4892c0-4.3607,3.45-6.6,6.9008-6.6s6.9011,2.2393,6.9011,6.6V87.5108C223.63,91.8714,220.1791,94.1107,216.7284,94.1107Z"/><path class="cls-1" d="M254.8121,118.8607H253.86c-8.09,0-17.9658-4.2429-20.8214-13.5536a7.9413,7.9413,0,0,1-.357-2.2393,6.32,6.32,0,0,1,6.5438-6.3642c2.6176,0,5.1162,1.65,6.6629,4.7143,0.714,1.4143,3.3316,3.8892,7.9717,3.8892h0.9518a6.1271,6.1271,0,0,0,6.3059-6.3642V91.6356a10.2482,10.2482,0,0,1-6.5438,2.4751H253.86a20.091,20.091,0,0,1-20.2265-19.918V55.8071A20.0154,20.0154,0,0,1,253.86,35.8893h0.714a10.1361,10.1361,0,0,1,6.5438,2.475c1.9037-1.7677,3.8074-2.475,7.02-2.475,3.6883,0,6.782,2.3571,6.782,6.6V98.9428A20.0647,20.0647,0,0,1,254.8121,118.8607Zm6.3059-62.8178a6.3239,6.3239,0,0,0-6.3059-6.6H253.86a6.3488,6.3488,0,0,0-6.425,6.6V74.075a6.2517,6.2517,0,0,0,6.425,6.4822h0.9518a6.2246,6.2246,0,0,0,6.3059-6.4822V56.0429Z"/><path class="cls-1" d="M288.0085,76.2517h-0.1252a2.5749,2.5749,0,0,1-2.7657-2.5587,0.531,0.531,0,0,1,1.0616.0138,1.5434,1.5434,0,0,0,1.718,1.4942h0.1391a1.378,1.378,0,0,0,1.578-1.5356c0-1.1342-.7955-1.4529-1.6615-1.9231-1.3407-.7191-2.6952-1.0929-2.6952-2.85a2.4729,2.4729,0,0,1,2.6257-2.3658h0.1391a2.4013,2.4013,0,0,1,2.5422,2.2133,0.4782,0.4782,0,0,1-.5034.5124,0.553,0.553,0,0,1-.5582-0.4986,1.386,1.386,0,0,0-1.5085-1.1756h-0.1261a1.3963,1.3963,0,0,0-1.5354,1.3142c0,0.9964.8651,1.328,1.62,1.7156,1.3963,0.7329,2.7231,1.1894,2.7231,3.0711A2.4217,2.4217,0,0,1,288.0085,76.2517Z"/><path class="cls-1" d="M288.0089,76.5087h-0.1256a2.838,2.838,0,0,1-3.0226-2.8156,0.7884,0.7884,0,0,1,1.5761.0136,1.2988,1.2988,0,0,0,1.4606,1.2371h0.1386a1.1247,1.1247,0,0,0,1.3209-1.2782c0-.884-0.5485-1.1763-1.3089-1.58l-0.218-.117c-0.1929-.1035-0.3867-0.2-0.5776-0.2948-1.1582-.5771-2.2521-1.122-2.2521-2.781a2.7329,2.7329,0,0,1,2.8829-2.6228h0.14a2.6532,2.6532,0,0,1,2.7986,2.4706,0.7317,0.7317,0,0,1-.76.7695,0.8137,0.8137,0,0,1-.8126-0.7243,1.1406,1.1406,0,0,0-1.2536-.95h-0.1266a1.136,1.136,0,0,0-1.2777,1.0572c0,0.7458.5866,1.0392,1.2667,1.3792l0.213,0.108c0.1446,0.0758.2873,0.1477,0.4269,0.219,1.2526,0.6348,2.4359,1.235,2.4359,3.08A2.67,2.67,0,0,1,288.0089,76.5087Zm-2.36-3.0708a0.2487,0.2487,0,0,0-.2742.2551,2.3184,2.3184,0,0,0,2.5083,2.3013h0.1256a2.1721,2.1721,0,0,0,2.41-2.3154c0-1.5294-.95-2.0115-2.1537-2.6218-0.1426-.0718-0.2873-0.1452-0.4319-0.2215l-0.2059-.104a2.1042,2.1042,0,0,1-1.551-1.8393,1.65,1.65,0,0,1,1.792-1.5716h0.1266a1.65,1.65,0,0,1,1.7649,1.4058,0.2925,0.2925,0,0,0,.3014.2687,0.2241,0.2241,0,0,0,.2461-0.2551,2.1417,2.1417,0,0,0-2.2843-1.9563h-0.14a2.226,2.226,0,0,0-2.3686,2.1085c0,1.3405.8679,1.773,1.9678,2.32,0.1939,0.0969.3928,0.1964,0.5917,0.3029l0.216,0.1155a2.2273,2.2273,0,0,1,1.5811,2.0341,1.6364,1.6364,0,0,1-1.8352,1.7925h-0.1386a1.7914,1.7914,0,0,1-1.9749-1.7514A0.2489,0.2489,0,0,0,285.6493,73.4379Z"/><path class="cls-1" d="M295.2961,76.2517a0.51,0.51,0,0,1-.5312-0.5253V67.0529a0.5308,0.5308,0,0,1,1.0616,0v8.6734A0.51,0.51,0,0,1,295.2961,76.2517Z"/><path class="cls-1" d="M295.2966,76.5087a0.7693,0.7693,0,0,1-.7885-0.7825V67.0527a0.7879,0.7879,0,0,1,1.5751,0v8.6734A0.7682,0.7682,0,0,1,295.2966,76.5087Zm0-9.7247a0.26,0.26,0,0,0-.2742.2687v8.6734a0.2733,0.2733,0,0,0,.5465,0V67.0527A0.2587,0.2587,0,0,0,295.2966,66.784Z"/><path class="cls-1" d="M302.7906,76.2517h-0.1252A2.5749,2.5749,0,0,1,299.9,73.693a0.531,0.531,0,0,1,1.0616.0138,1.5434,1.5434,0,0,0,1.718,1.4942h0.1391a1.378,1.378,0,0,0,1.578-1.5356c0-1.1342-.7955-1.4529-1.6615-1.9231-1.3407-.7191-2.6952-1.0929-2.6952-2.85a2.4729,2.4729,0,0,1,2.6257-2.3658h0.1391a2.4013,2.4013,0,0,1,2.5422,2.2133,0.4782,0.4782,0,0,1-.5034.5124,0.553,0.553,0,0,1-.5582-0.4986,1.386,1.386,0,0,0-1.5085-1.1756h-0.1261a1.3963,1.3963,0,0,0-1.5354,1.3142c0,0.9964.8651,1.328,1.62,1.7156,1.3963,0.7329,2.7231,1.1894,2.7231,3.0711A2.4217,2.4217,0,0,1,302.7906,76.2517Z"/><path class="cls-1" d="M302.79,76.5087h-0.1246a2.8383,2.8383,0,0,1-3.0236-2.8156,0.7884,0.7884,0,0,1,1.5761.0136,1.3,1.3,0,0,0,1.4616,1.2371h0.1386a1.1247,1.1247,0,0,0,1.3209-1.2782c0-.884-0.5485-1.1763-1.3089-1.58l-0.218-.117c-0.1929-.1035-0.3867-0.2-0.5766-0.2943-1.1582-.5771-2.2531-1.122-2.2531-2.7815a2.7329,2.7329,0,0,1,2.8829-2.6228h0.1386a2.6535,2.6535,0,0,1,2.8,2.4706,0.7317,0.7317,0,0,1-.76.7695,0.816,0.816,0,0,1-.8137-0.7237,1.1389,1.1389,0,0,0-1.2536-.9508h-0.1256a1.1364,1.1364,0,0,0-1.2787,1.0572c0,0.7453.5866,1.0392,1.2667,1.3787l0.214,0.1085c0.1446,0.0758.2873,0.1477,0.4269,0.219,1.2526,0.6348,2.4359,1.235,2.4359,3.08A2.6708,2.6708,0,0,1,302.79,76.5087Zm-2.36-3.0708a0.2487,0.2487,0,0,0-.2742.2551,2.3192,2.3192,0,0,0,2.5093,2.3013H302.79a2.1724,2.1724,0,0,0,2.4108-2.3154c0-1.5294-.95-2.0115-2.1537-2.6218-0.1426-.0718-0.2873-0.1452-0.4319-0.2215l-0.2069-.1045a2.1036,2.1036,0,0,1-1.551-1.8388,1.6514,1.6514,0,0,1,1.793-1.5716h0.1256a1.6487,1.6487,0,0,1,1.7649,1.4063,0.2943,0.2943,0,0,0,.3024.2682A0.2241,0.2241,0,0,0,305.09,68.74a2.1427,2.1427,0,0,0-2.2853-1.9563h-0.1386a2.226,2.226,0,0,0-2.3686,2.1085c0,1.341.8689,1.7735,1.9678,2.3209,0.1949,0.0969.3938,0.1959,0.5917,0.3024l0.216,0.1155a2.2273,2.2273,0,0,1,1.5811,2.0341,1.6364,1.6364,0,0,1-1.8352,1.7925H302.68a1.7923,1.7923,0,0,1-1.9759-1.7514A0.2489,0.2489,0,0,0,300.4306,73.4379Z"/><path class="cls-1" d="M313.3411,67.6618h-1.5363v8.0645a0.5308,0.5308,0,0,1-1.0616,0V67.6618h-1.5363a0.5258,0.5258,0,1,1,0-1.0516h4.1341A0.5258,0.5258,0,1,1,313.3411,67.6618Z"/><path class="cls-1" d="M311.2743,76.5087a0.7693,0.7693,0,0,1-.7885-0.7825v-7.807H309.207a0.783,0.783,0,1,1,0-1.566h4.1336a0.783,0.783,0,1,1,0,1.566h-1.2787v7.807A0.769,0.769,0,0,1,311.2743,76.5087Zm-2.0673-9.6413a0.2687,0.2687,0,1,0,0,.5374H311v8.3214a0.2738,0.2738,0,0,0,.5475,0V67.4048h1.793a0.2687,0.2687,0,1,0,0-.5374H309.207Z"/><path class="cls-1" d="M322.5188,76.169h-4.3715a0.5465,0.5465,0,0,1-.53-0.5253v-8.508a0.5465,0.5465,0,0,1,.53-0.5253h4.3715a0.5258,0.5258,0,1,1,0,1.0516h-3.8411v3.0427h2.6674a0.5258,0.5258,0,1,1,0,1.0516h-2.6674v3.3614h3.8411A0.5258,0.5258,0,1,1,322.5188,76.169Z"/><path class="cls-1" d="M322.5188,76.4263h-4.3716a0.8053,0.8053,0,0,1-.7875-0.7825V67.1356a0.8053,0.8053,0,0,1,.7875-0.7825h4.3716a0.783,0.783,0,1,1,0,1.566h-3.5841v2.5283h2.4108a0.7828,0.7828,0,1,1,0,1.5655h-2.4108V74.86h3.5841A0.783,0.783,0,1,1,322.5188,76.4263Zm-4.3716-9.5589a0.2892,0.2892,0,0,0-.2732.2682v8.5082a0.2892,0.2892,0,0,0,.2732.2682h4.3716a0.2687,0.2687,0,1,0,0-.5374H318.42V71.4987h2.9251a0.2685,0.2685,0,1,0,0-.5369H318.42v-3.557h4.0984a0.2687,0.2687,0,1,0,0-.5374h-4.3716Z"/><path class="cls-1" d="M333.4353,76.2517a0.51,0.51,0,0,1-.5312-0.5253V68.9614l-1.8432,4.1916a0.6175,0.6175,0,0,1-.586.36,0.648,0.648,0,0,1-.6008-0.36l-1.9-4.1916v6.7649a0.53,0.53,0,0,1-1.0607,0V67.1356a0.5319,0.5319,0,0,1,.6277-0.6089h0.0426a0.6269,0.6269,0,0,1,.6277.4013l2.2344,4.9529,2.2205-4.9529a0.6349,0.6349,0,0,1,.6425-0.4013h0.0417a0.5275,0.5275,0,0,1,.6147.6089v8.5907A0.51,0.51,0,0,1,333.4353,76.2517Z"/><path class="cls-1" d="M333.4358,76.5087a0.7693,0.7693,0,0,1-.7885-0.7825V70.1848l-1.3511,3.0718a0.8687,0.8687,0,0,1-.8217.5138,0.9038,0.9038,0,0,1-.8327-0.5073l-1.41-3.1115v5.5745a0.7879,0.7879,0,0,1-1.5751,0V67.1356a0.7859,0.7859,0,0,1,.885-0.8659,0.8973,0.8973,0,0,1,.9061.557l1.998,4.4274,1.9859-4.4309a0.8922,0.8922,0,0,1,.8779-0.5535,0.7927,0.7927,0,0,1,.9141.8659v8.5906A0.769,0.769,0,0,1,333.4358,76.5087Zm-0.2742-8.7709v7.9884a0.2738,0.2738,0,0,0,.5475,0V67.1356c0-.26-0.0542-0.3516-0.3576-0.3516a0.4039,0.4039,0,0,0-.449.2466l-2.455,5.4771-2.47-5.4736a0.3757,0.3757,0,0,0-.3928-0.25c-0.3606,0-.4139.0879-0.4139,0.3516v8.5906a0.2733,0.2733,0,0,0,.5465,0V67.7709l2.3907,5.2762a0.39,0.39,0,0,0,.3666.2089,0.37,0.37,0,0,0,.3516-0.2079Z"/><path class="cls-1" d="M344.06,76.2517a0.51,0.51,0,0,1-.5034-0.3729l-0.6138-1.992h-3.45l-0.6277,1.992a0.4947,0.4947,0,0,1-.4895.3729,0.52,0.52,0,0,1-.5443-0.5116,0.7,0.7,0,0,1,.0278-0.1662l2.7231-8.66a0.6371,0.6371,0,0,1,.6286-0.3876,0.6438,0.6438,0,0,1,.6425.3876l2.7231,8.66a0.7,0.7,0,0,1,.0278.1662A0.52,0.52,0,0,1,344.06,76.2517Zm-2.8491-7.8432-1.3824,4.4267h2.7787Z"/><path class="cls-1" d="M344.0595,76.5087a0.7677,0.7677,0,0,1-.7484-0.551l-0.5585-1.8136h-3.0708L339.11,75.9562a0.75,0.75,0,0,1-.7353.5525,0.7766,0.7766,0,0,1-.8006-0.7684,0.8972,0.8972,0,0,1,.0352-0.229l2.7272-8.6744a0.8839,0.8839,0,0,1,.8739-0.567,0.8932,0.8932,0,0,1,.886.5615l2.7242,8.6654a0.9653,0.9653,0,0,1,.04.2436A0.7775,0.7775,0,0,1,344.0595,76.5087ZM339.3041,73.63h3.8282l0.67,2.1733a0.2527,0.2527,0,0,0,.2572.1914,0.2626,0.2626,0,0,0,.2873-0.2541,0.5331,0.5331,0,0,0-.02-0.102l-2.7182-8.6468a0.47,0.47,0,0,0-.7835.0055l-2.7212,8.6543a0.5019,0.5019,0,0,0-.0151.0889,0.2622,0.2622,0,0,0,.2863.2541A0.2413,0.2413,0,0,0,338.62,75.8Zm3.6534-.5374h-3.4786l1.7308-5.5429Zm-2.7795-.5143h2.0783l-1.0447-3.3109Z"/><path class="cls-1" d="M357.8889,76.2517a0.6816,0.6816,0,0,1-.726-0.47l-3.0447-6.82v6.7649a0.53,0.53,0,0,1-1.0607,0v-8.66a0.5563,0.5563,0,0,1,.6277-0.54,0.6719,0.6719,0,0,1,.7129.4427l3.03,6.8476V67.0529a0.5217,0.5217,0,0,1,.5451-0.5262,0.5,0.5,0,0,1,.5164.5262V75.63A0.5608,0.5608,0,0,1,357.8889,76.2517Z"/><path class="cls-1" d="M357.8885,76.5087a0.9338,0.9338,0,0,1-.96-0.6228l-2.5525-5.7177v5.5579a0.7879,0.7879,0,0,1-1.5751,0V67.0668a0.8074,0.8074,0,0,1,.884-0.7971,0.92,0.92,0,0,1,.9473.5942l2.5394,5.7368V67.0527a0.7878,0.7878,0,0,1,1.5751,0V75.63A0.8138,0.8138,0,0,1,357.8885,76.5087Zm-4.0271-8.7543,3.5369,7.9221a0.432,0.432,0,0,0,.49.3179,0.3111,0.3111,0,0,0,.3435-0.3646v-8.577a0.244,0.244,0,0,0-.2592-0.2687,0.2668,0.2668,0,0,0-.2873.2687v7.9808l-3.5228-7.96a0.4222,0.4222,0,0,0-.4781-0.2893,0.3156,0.3156,0,0,0-.37.2828v8.6594a0.2733,0.2733,0,0,0,.5465,0V67.7544Z"/><path class="cls-1" d="M368.5828,76.2517a0.51,0.51,0,0,1-.5034-0.3729l-0.6138-1.992h-3.45l-0.6277,1.992a0.4947,0.4947,0,0,1-.4895.3729,0.52,0.52,0,0,1-.5443-0.5116,0.7,0.7,0,0,1,.0278-0.1662l2.7231-8.66a0.6371,0.6371,0,0,1,.6286-0.3876,0.6438,0.6438,0,0,1,.6425.3876l2.7231,8.66a0.7,0.7,0,0,1,.0278.1662A0.52,0.52,0,0,1,368.5828,76.2517Zm-2.8491-7.8432-1.3824,4.4267H367.13Z"/><path class="cls-1" d="M368.5825,76.5087a0.7677,0.7677,0,0,1-.7484-0.551l-0.5585-1.8136h-3.0708l-0.5716,1.8121a0.75,0.75,0,0,1-.7353.5525,0.7766,0.7766,0,0,1-.8006-0.7684,0.9012,0.9012,0,0,1,.0311-0.213l2.7313-8.6905a0.8839,0.8839,0,0,1,.8739-0.567,0.8932,0.8932,0,0,1,.886.5615l2.7242,8.6654a0.9653,0.9653,0,0,1,.04.2436A0.7775,0.7775,0,0,1,368.5825,76.5087ZM363.8272,73.63h3.8282l0.67,2.1733a0.2527,0.2527,0,0,0,.2572.1914A0.2626,0.2626,0,0,0,368.87,75.74a0.5331,0.5331,0,0,0-.02-0.102l-2.7182-8.6468a0.47,0.47,0,0,0-.7835.0055l-2.7212,8.6543a0.6082,0.6082,0,0,0-.0151.0889,0.2622,0.2622,0,0,0,.2863.2541,0.2413,0.2413,0,0,0,.2451-0.1944Zm3.6534-.5374H364.002l1.7308-5.5429Zm-2.7795-.5143h2.0783l-1.0447-3.3109Z"/><path class="cls-1" d="M375.4713,76.2517h-0.1391a2.64,2.64,0,0,1-2.6535-2.6285V69.1414a2.6284,2.6284,0,0,1,2.6535-2.6147h0.1391a2.6315,2.6315,0,0,1,2.6257,2.2555V68.865a0.4958,0.4958,0,0,1-.5164.5116,0.5424,0.5424,0,0,1-.5312-0.4564,1.6358,1.6358,0,0,0-1.578-1.3418h-0.1391a1.5816,1.5816,0,0,0-1.5928,1.5631v4.4818a1.5851,1.5851,0,0,0,1.5928,1.5778h0.1391a1.6358,1.6358,0,0,0,1.578-1.3418,0.5394,0.5394,0,0,1,.5312-0.4564,0.4953,0.4953,0,0,1,.5164.5116v0.0965A2.6645,2.6645,0,0,1,375.4713,76.2517Z"/><path class="cls-1" d="M375.4715,76.5087h-0.14a2.9013,2.9013,0,0,1-2.91-2.8855V69.1416a2.8947,2.8947,0,0,1,2.91-2.8719h0.14a2.8731,2.8731,0,0,1,2.88,2.4766l0.003,0.1185a0.7542,0.7542,0,0,1-.7735.769,0.7968,0.7968,0,0,1-.7815-0.6559,1.3749,1.3749,0,0,0-1.328-1.1426h-0.14a1.3224,1.3224,0,0,0-1.335,1.3064v4.4816a1.329,1.329,0,0,0,1.335,1.32h0.14a1.371,1.371,0,0,0,1.326-1.1361,0.7944,0.7944,0,0,1,.7835-0.662,0.7542,0.7542,0,0,1,.7735.769V74.011A2.9364,2.9364,0,0,1,375.4715,76.5087Zm-0.14-9.7247a2.38,2.38,0,0,0-2.3958,2.3576v4.4816a2.3864,2.3864,0,0,0,2.3958,2.3711h0.14a2.4143,2.4143,0,0,0,2.3716-2.0231l-0.003-.0568a0.2424,0.2424,0,0,0-.2592-0.2546,0.2813,0.2813,0,0,0-.28.2546,1.8793,1.8793,0,0,1-1.8292,1.5434h-0.14a1.8443,1.8443,0,0,1-1.8493-1.8347V69.1416a1.8373,1.8373,0,0,1,1.8493-1.8207h0.14a1.8814,1.8814,0,0,1,1.83,1.5474,0.2862,0.2862,0,0,0,.2793.2511,0.2424,0.2424,0,0,0,.2592-0.2546V68.7825a2.36,2.36,0,0,0-2.3686-1.9985h-0.14Z"/><path class="cls-1" d="M382.6415,76.2517a0.51,0.51,0,0,1-.5312-0.5253V67.0529a0.5308,0.5308,0,0,1,1.0616,0v8.6734A0.51,0.51,0,0,1,382.6415,76.2517Z"/><path class="cls-1" d="M382.6417,76.5087a0.7693,0.7693,0,0,1-.7885-0.7825V67.0527a0.7885,0.7885,0,0,1,1.5761,0v8.6734A0.769,0.769,0,0,1,382.6417,76.5087Zm0-9.7247a0.26,0.26,0,0,0-.2742.2687v8.6734a0.2738,0.2738,0,0,0,.5475,0V67.0527A0.2594,0.2594,0,0,0,382.6417,66.784Z"/><path class="cls-1" d="M390.2777,76.2517h-0.1391a2.64,2.64,0,0,1-2.6535-2.6285V69.1414a2.6284,2.6284,0,0,1,2.6535-2.6147h0.1391a2.6252,2.6252,0,0,1,2.64,2.6147v4.4818A2.6276,2.6276,0,0,1,390.2777,76.2517Zm1.578-7.0965a1.5717,1.5717,0,0,0-1.578-1.5769h-0.1391a1.5816,1.5816,0,0,0-1.5928,1.5631v4.4818a1.5851,1.5851,0,0,0,1.5928,1.5778h0.1391a1.5725,1.5725,0,0,0,1.578-1.5778v-4.468Z"/><path class="cls-1" d="M390.2779,76.5087h-0.14a2.9013,2.9013,0,0,1-2.91-2.8855V69.1416a2.8947,2.8947,0,0,1,2.91-2.8719h0.14a2.8871,2.8871,0,0,1,2.896,2.8719v4.4816A2.8938,2.8938,0,0,1,390.2779,76.5087Zm-0.14-9.7247a2.38,2.38,0,0,0-2.3958,2.3576v4.4816a2.3864,2.3864,0,0,0,2.3958,2.3711h0.14a2.3794,2.3794,0,0,0,2.3817-2.3711V69.1416a2.3727,2.3727,0,0,0-2.3817-2.3576h-0.14Zm0.14,8.6739h-0.14a1.8443,1.8443,0,0,1-1.8493-1.8347V69.1416a1.8373,1.8373,0,0,1,1.8493-1.8207h0.14a1.837,1.837,0,0,1,1.8352,1.8342v4.4681A1.8374,1.8374,0,0,1,390.2779,75.458Zm-0.14-7.6227a1.3224,1.3224,0,0,0-1.335,1.3064v4.4816a1.329,1.329,0,0,0,1.335,1.32h0.14a1.3221,1.3221,0,0,0,1.3209-1.32V69.1552a1.322,1.322,0,0,0-1.3209-1.32h-0.14Z"/><path class="cls-1" d="M402.0011,76.2517a0.6816,0.6816,0,0,1-.726-0.47l-3.0447-6.82v6.7649a0.53,0.53,0,0,1-1.0607,0v-8.66a0.5563,0.5563,0,0,1,.6277-0.54,0.6719,0.6719,0,0,1,.7129.4427l3.03,6.8476V67.0529a0.5217,0.5217,0,0,1,.5451-0.5262,0.5,0.5,0,0,1,.5164.5262V75.63A0.5608,0.5608,0,0,1,402.0011,76.2517Z"/><path class="cls-1" d="M402.0016,76.5087a0.9349,0.9349,0,0,1-.9613-0.6228l-2.5525-5.7177v5.5579a0.7879,0.7879,0,0,1-1.5751,0V67.0668a0.8077,0.8077,0,0,1,.885-0.7971,0.92,0.92,0,0,1,.9462.5942l2.5394,5.7368V67.0527a0.7883,0.7883,0,0,1,1.5761,0V75.63A0.8138,0.8138,0,0,1,402.0016,76.5087Zm-4.0281-8.7543,3.5369,7.9221a0.4325,0.4325,0,0,0,.4912.3179,0.3111,0.3111,0,0,0,.3435-0.3646v-8.577a0.2447,0.2447,0,0,0-.26-0.2687,0.2668,0.2668,0,0,0-.2873.2687v7.9808l-3.5228-7.96a0.4216,0.4216,0,0,0-.4771-0.2893,0.3165,0.3165,0,0,0-.3707.2828v8.6594a0.2733,0.2733,0,0,0,.5465,0V67.7544Z"/><path class="cls-1" d="M412.695,76.2517a0.5084,0.5084,0,0,1-.5025-0.3729l-0.6147-1.992h-3.45l-0.6286,1.992a0.4931,0.4931,0,0,1-.4886.3729,0.52,0.52,0,0,1-.5443-0.5116,0.7,0.7,0,0,1,.0278-0.1662l2.7231-8.66a0.7149,0.7149,0,0,1,1.2711,0l2.7231,8.66a0.7,0.7,0,0,1,.0278.1662A0.52,0.52,0,0,1,412.695,76.2517Zm-2.8491-7.8432-1.3824,4.4267h2.7787Z"/><path class="cls-1" d="M412.6946,76.5087a0.7654,0.7654,0,0,1-.7474-0.552l-0.56-1.8126h-3.0708l-0.5726,1.8121a0.7465,0.7465,0,0,1-.7333.5525,0.7775,0.7775,0,0,1-.8016-0.7684,0.95,0.95,0,0,1,.0352-0.2275l2.7272-8.6759a0.8839,0.8839,0,0,1,.8739-0.567,0.8928,0.8928,0,0,1,.887.5625l2.7242,8.6644a0.9941,0.9941,0,0,1,.0392.2436A0.7775,0.7775,0,0,1,412.6946,76.5087ZM407.9392,73.63h3.8282l0.671,2.1733a0.251,0.251,0,0,0,.2561.1914,0.2626,0.2626,0,0,0,.2873-0.2541,0.5832,0.5832,0,0,0-.0171-0.0949l-2.7212-8.6538a0.4622,0.4622,0,0,0-.7835.0055l-2.72,8.6543a0.513,0.513,0,0,0-.0161.0889,0.2626,0.2626,0,0,0,.2873.2541,0.2393,0.2393,0,0,0,.2431-0.1934Zm3.6534-.5374H408.114l1.7308-5.5429Zm-2.7795-.5143h2.0783l-1.0447-3.3109Z"/><path class="cls-1" d="M421.4467,76.169h-3.8124a0.5465,0.5465,0,0,1-.53-0.5253V67.0529a0.53,0.53,0,0,1,1.0607,0v8.0645h3.2821A0.5258,0.5258,0,1,1,421.4467,76.169Z"/><path class="cls-1" d="M421.4468,76.4263h-3.8121a0.8053,0.8053,0,0,1-.7875-0.7825V67.0527a0.7879,0.7879,0,0,1,1.5751,0V74.86h3.0246A0.783,0.783,0,1,1,421.4468,76.4263Zm-3.8121-9.6423a0.2594,0.2594,0,0,0-.2732.2687v8.5911a0.29,0.29,0,0,0,.2732.2682h3.8121a0.2687,0.2687,0,1,0,0-.5374H417.908V67.0527A0.2594,0.2594,0,0,0,417.6347,66.784Z"/><path class="cls-1" d="M288.4693,91.3136h-2.2623a0.5465,0.5465,0,0,1-.53-0.5253V82.28a0.5465,0.5465,0,0,1,.53-0.5253h2.2623a2.6247,2.6247,0,0,1,2.64,2.6147v4.3156A2.6276,2.6276,0,0,1,288.4693,91.3136Zm1.5919-6.93a1.5717,1.5717,0,0,0-1.578-1.5769h-1.7458v7.4556h1.7319a1.5836,1.5836,0,0,0,1.5919-1.5769V84.3833Z"/><path class="cls-1" d="M288.4689,91.5708h-2.2622a0.8053,0.8053,0,0,1-.7875-0.7825V82.28a0.8053,0.8053,0,0,1,.7875-0.7825h2.2622a2.8879,2.8879,0,0,1,2.897,2.8719v4.3159A2.8946,2.8946,0,0,1,288.4689,91.5708Zm-2.2622-9.5589a0.2892,0.2892,0,0,0-.2732.2682v8.5082a0.2892,0.2892,0,0,0,.2732.2682h2.2622a2.38,2.38,0,0,0,2.3827-2.3711V84.3695a2.373,2.373,0,0,0-2.3827-2.3576h-2.2622Zm2.2622,8.5072H286.48v-7.97h2.003a1.837,1.837,0,0,1,1.8352,1.8342v4.3018A1.8438,1.8438,0,0,1,288.4689,90.5191Zm-1.4746-.5143h1.4746a1.3285,1.3285,0,0,0,1.335-1.3194V84.3835a1.322,1.322,0,0,0-1.3209-1.32h-1.4887v6.9412Z"/><path class="cls-1" d="M300.2518,91.3136H295.88a0.5465,0.5465,0,0,1-.53-0.5253V82.28a0.5465,0.5465,0,0,1,.53-0.5253h4.3715a0.5258,0.5258,0,1,1,0,1.0516h-3.8411v3.0427h2.6674a0.5258,0.5258,0,1,1,0,1.0516h-2.6674v3.3614h3.8411A0.5258,0.5258,0,1,1,300.2518,91.3136Z"/><path class="cls-1" d="M300.2518,91.5708H295.88a0.8053,0.8053,0,0,1-.7875-0.7825V82.28a0.8053,0.8053,0,0,1,.7875-0.7825h4.3716a0.783,0.783,0,1,1,0,1.566h-3.5841v2.5283h2.4108a0.783,0.783,0,1,1,0,1.566h-2.4108v2.8468h3.5841A0.783,0.783,0,1,1,300.2518,91.5708ZM295.88,82.0119a0.2892,0.2892,0,0,0-.2732.2682v8.5082a0.2892,0.2892,0,0,0,.2732.2682h4.3716a0.2687,0.2687,0,1,0,0-.5374h-4.0984V86.6437h2.9251a0.2687,0.2687,0,1,0,0-.5374h-2.9251v-3.557h4.0984a0.2687,0.2687,0,1,0,0-.5374H295.88Z"/><path class="cls-1" d="M309.906,91.3963a0.51,0.51,0,0,1-.5312-0.5253V82.1976a0.5308,0.5308,0,0,1,1.0616,0v8.6734A0.51,0.51,0,0,1,309.906,91.3963Z"/><path class="cls-1" d="M309.9062,91.6537a0.7693,0.7693,0,0,1-.7885-0.7825V82.1977a0.7885,0.7885,0,0,1,1.5761,0v8.6734A0.769,0.769,0,0,1,309.9062,91.6537Zm0-9.7252a0.26,0.26,0,0,0-.2742.2692v8.6734a0.2738,0.2738,0,0,0,.5475,0V82.1977A0.26,0.26,0,0,0,309.9062,81.9285Z"/><path class="cls-1" d="M319.7349,91.3963a0.6816,0.6816,0,0,1-.726-0.47l-3.0447-6.82v6.7649a0.53,0.53,0,0,1-1.0607,0v-8.66a0.5563,0.5563,0,0,1,.6277-0.54,0.6719,0.6719,0,0,1,.7129.4427l3.03,6.8476V82.1976a0.5217,0.5217,0,0,1,.5451-0.5262,0.5,0.5,0,0,1,.5164.5262v8.5769A0.5608,0.5608,0,0,1,319.7349,91.3963Z"/><path class="cls-1" d="M319.7353,91.6537a0.9348,0.9348,0,0,1-.9613-0.6233l-2.5525-5.7172v5.5579a0.7879,0.7879,0,0,1-1.5751,0v-8.66a0.8077,0.8077,0,0,1,.885-0.7971,0.92,0.92,0,0,1,.9462.5942l2.5394,5.7368V82.1977a0.7883,0.7883,0,0,1,1.5761,0v8.577A0.8138,0.8138,0,0,1,319.7353,91.6537Zm-4.0281-8.7543,3.5369,7.9216a0.4325,0.4325,0,0,0,.4912.3184,0.3111,0.3111,0,0,0,.3435-0.3646v-8.577a0.2442,0.2442,0,0,0-.2592-0.2692,0.2672,0.2672,0,0,0-.2883.2692v7.98l-3.5228-7.96a0.4216,0.4216,0,0,0-.4771-0.2893,0.3165,0.3165,0,0,0-.3707.2828v8.66a0.2733,0.2733,0,0,0,.5465,0V82.8994Z"/><path class="cls-1" d="M329.6437,82.8064h-3.8411v3.0427H328.47a0.5258,0.5258,0,1,1,0,1.0516h-2.6674v3.97a0.53,0.53,0,0,1-1.0607,0V82.28a0.5465,0.5465,0,0,1,.53-0.5253h4.3715A0.5258,0.5258,0,1,1,329.6437,82.8064Z"/><path class="cls-1" d="M325.2721,91.6537a0.769,0.769,0,0,1-.7875-0.7825V82.28a0.8053,0.8053,0,0,1,.7875-0.7825h4.3716a0.783,0.783,0,1,1,0,1.566H326.06v2.5283H328.47a0.783,0.783,0,1,1,0,1.566H326.06v3.7132A0.769,0.769,0,0,1,325.2721,91.6537Zm0-9.6418a0.2892,0.2892,0,0,0-.2732.2682v8.5911a0.2733,0.2733,0,0,0,.5465,0V86.6437H328.47a0.2687,0.2687,0,1,0,0-.5374h-2.9251v-3.557h4.0984a0.2687,0.2687,0,1,0,0-.5374h-4.3716Z"/><path class="cls-1" d="M336.2479,91.3963h-0.1391a2.6393,2.6393,0,0,1-2.6535-2.6276V84.286a2.6284,2.6284,0,0,1,2.6535-2.6147h0.1391a2.6252,2.6252,0,0,1,2.64,2.6147v4.4827A2.6274,2.6274,0,0,1,336.2479,91.3963Zm1.578-7.0965a1.5717,1.5717,0,0,0-1.578-1.5769h-0.1391a1.5816,1.5816,0,0,0-1.5928,1.5631v4.4827a1.5849,1.5849,0,0,0,1.5928,1.5769h0.1391a1.5723,1.5723,0,0,0,1.578-1.5769V84.3Z"/><path class="cls-1" d="M336.2484,91.6537h-0.14a2.9014,2.9014,0,0,1-2.9111-2.8849V84.2861a2.8949,2.8949,0,0,1,2.9111-2.8719h0.14a2.8871,2.8871,0,0,1,2.896,2.8719v4.4826A2.8936,2.8936,0,0,1,336.2484,91.6537Zm-0.14-9.7252a2.38,2.38,0,0,0-2.3968,2.3576v4.4826a2.3862,2.3862,0,0,0,2.3968,2.3706h0.14a2.379,2.379,0,0,0,2.3817-2.3706V84.2861a2.3727,2.3727,0,0,0-2.3817-2.3576h-0.14Zm0.14,8.6744h-0.14a1.8441,1.8441,0,0,1-1.85-1.8342V84.2861a1.8374,1.8374,0,0,1,1.85-1.82h0.14A1.836,1.836,0,0,1,338.0826,84.3v4.4691A1.8361,1.8361,0,0,1,336.2484,90.6029Zm-0.14-7.6227a1.3228,1.3228,0,0,0-1.336,1.3059v4.4826a1.33,1.33,0,0,0,1.336,1.32h0.14a1.3212,1.3212,0,0,0,1.32-1.32V84.3a1.3207,1.3207,0,0,0-1.32-1.3194h-0.14Z"/><path class="cls-1" d="M346.7576,87.0531l1.7319,3.5827a0.526,0.526,0,0,1-.5034.76,0.5087,0.5087,0,0,1-.4608-0.304l-1.8988-3.9565h-1.425v3.7351a0.53,0.53,0,0,1-1.0607,0V82.28a0.5465,0.5465,0,0,1,.53-0.5253h2.3457a2.64,2.64,0,0,1,2.6535,2.6285v0.124A2.6106,2.6106,0,0,1,346.7576,87.0531Zm0.852-2.67a1.5844,1.5844,0,0,0-1.5928-1.5769h-1.8154v3.2778h1.8719a1.5368,1.5368,0,0,0,1.5363-1.5769v-0.124Z"/><path class="cls-1" d="M347.9861,91.6537a0.7623,0.7623,0,0,1-.69-0.445l-1.8312-3.8156h-1.0065v3.4781a0.7879,0.7879,0,0,1-1.5751,0V82.28a0.8053,0.8053,0,0,1,.7875-0.7825h2.3465a2.9017,2.9017,0,0,1,2.91,2.886v0.1241a2.8683,2.8683,0,0,1-1.8111,2.6956l1.6042,3.32a0.7686,0.7686,0,0,1,.0824.3476A0.7829,0.7829,0,0,1,347.9861,91.6537Zm-4.0421-4.7749h1.8443l1.9688,4.1024a0.2529,0.2529,0,0,0,.229.1582,0.2716,0.2716,0,0,0,.3024-0.2682,0.2675,0.2675,0,0,0-.0281-0.119l-1.8674-3.8633,0.2953-.0834a2.3582,2.3582,0,0,0,1.7247-2.2978V84.3835a2.3865,2.3865,0,0,0-2.3958-2.3716h-2.3465a0.2928,0.2928,0,0,0-.2732.2682v8.5911a0.2733,0.2733,0,0,0,.5465,0V86.8787Zm2.13-.5374h-2.13v-3.792h2.0733a1.8439,1.8439,0,0,1,1.8493,1.8342v0.1241A1.7945,1.7945,0,0,1,346.0735,86.3413Zm-1.6153-.5143h1.6153a1.2856,1.2856,0,0,0,1.2787-1.3194V84.3835a1.3289,1.3289,0,0,0-1.335-1.32h-1.559V85.827Z"/><path class="cls-1" d="M359.206,91.3963a0.51,0.51,0,0,1-.5312-0.5253V84.106l-1.8432,4.1916a0.6188,0.6188,0,0,1-.586.36,0.648,0.648,0,0,1-.6008-0.36l-1.9-4.1916v6.7649a0.53,0.53,0,0,1-1.0607,0V82.28a0.5316,0.5316,0,0,1,.6277-0.6089h0.0426a0.6269,0.6269,0,0,1,.6277.4013l2.2344,4.9529,2.2205-4.9529a0.6357,0.6357,0,0,1,.6425-0.4013h0.0417a0.5273,0.5273,0,0,1,.6147.6089v8.5907A0.51,0.51,0,0,1,359.206,91.3963Z"/><path class="cls-1" d="M359.2065,91.6537a0.7693,0.7693,0,0,1-.7885-0.7825V85.33l-1.3511,3.0713a0.8687,0.8687,0,0,1-.8217.5138,0.9038,0.9038,0,0,1-.8327-0.5073l-1.41-3.111v5.5745a0.7879,0.7879,0,0,1-1.5751,0V82.28a0.7859,0.7859,0,0,1,.885-0.8659,0.9018,0.9018,0,0,1,.9071.556l1.997,4.4284,1.9859-4.4309a0.8922,0.8922,0,0,1,.8779-0.5535,0.7927,0.7927,0,0,1,.9141.8659v8.5911A0.769,0.769,0,0,1,359.2065,91.6537Zm-0.2742-8.7709v7.9884a0.2738,0.2738,0,0,0,.5475,0V82.28c0-.2637-0.0512-0.3516-0.3576-0.3516a0.4039,0.4039,0,0,0-.449.2466l-2.455,5.4771-2.4691-5.4736a0.3783,0.3783,0,0,0-.3938-0.25c-0.3606,0-.4139.0879-0.4139,0.3516v8.5911a0.2733,0.2733,0,0,0,.5465,0V82.9159l2.3907,5.2757a0.39,0.39,0,0,0,.3666.2089,0.37,0.37,0,0,0,.3516-0.2079Z"/><path class="cls-1" d="M369.8374,91.3963a0.5084,0.5084,0,0,1-.5025-0.3729l-0.6147-1.992h-3.45l-0.6286,1.992a0.4931,0.4931,0,0,1-.4886.3729,0.52,0.52,0,0,1-.5443-0.5116,0.7,0.7,0,0,1,.0278-0.1662l2.7231-8.66a0.7149,0.7149,0,0,1,1.2711,0l2.7231,8.66a0.7,0.7,0,0,1,.0278.1662A0.52,0.52,0,0,1,369.8374,91.3963Zm-2.8491-7.8432L365.6059,87.98h2.7787Z"/><path class="cls-1" d="M369.8372,91.6537a0.7658,0.7658,0,0,1-.7474-0.5525l-0.56-1.8126H365.46l-0.5726,1.8121a0.7475,0.7475,0,0,1-.7343.553,0.777,0.777,0,0,1-.8006-0.769,0.9077,0.9077,0,0,1,.0352-0.2285l2.7272-8.6744a0.8843,0.8843,0,0,1,.8739-0.5675,0.8933,0.8933,0,0,1,.886.5625l2.7242,8.6644a0.9289,0.9289,0,0,1,.04.2436A0.7779,0.7779,0,0,1,369.8372,91.6537Zm-4.7553-2.8794H368.91l0.671,2.1733a0.2517,0.2517,0,0,0,.2561.1919,0.2626,0.2626,0,0,0,.2873-0.2546,0.5757,0.5757,0,0,0-.0191-0.0994l-2.7192-8.6488a0.47,0.47,0,0,0-.7835.005l-2.7212,8.6543a0.5361,0.5361,0,0,0-.0151.0889,0.2623,0.2623,0,0,0,.2863.2546,0.24,0.24,0,0,0,.2441-0.1939Zm3.6534-.5374h-3.4786l1.7308-5.5424Zm-2.7795-.5143h2.0783l-1.0447-3.31Z"/><path class="cls-1" d="M377.0615,91.3687v0.3324a1.1042,1.1042,0,0,1,.7955,1.0653v0.1378a1.1181,1.1181,0,0,1-1.1311,1.1067h-0.1391a1.1245,1.1245,0,0,1-1.0894-.8018c0-.0422-0.0139-0.0835-0.0139-0.1249a0.3928,0.3928,0,0,1,.4191-0.3738,0.3648,0.3648,0,0,1,.3626.2773,0.3315,0.3315,0,0,0,.3217.2351h0.1391a0.3271,0.3271,0,0,0,.3356-0.3187V92.7665a0.3388,0.3388,0,0,0-.3356-0.3324h-0.07a0.4009,0.4009,0,0,1-.3912-0.4013v-0.65a2.6506,2.6506,0,0,1-2.3318-2.6138V84.286a2.6284,2.6284,0,0,1,2.6535-2.6147h0.1391a2.6315,2.6315,0,0,1,2.6257,2.2555V84.01a0.4953,0.4953,0,0,1-.5164.5116,0.5424,0.5424,0,0,1-.5312-0.4564,1.6358,1.6358,0,0,0-1.578-1.3418h-0.1391a1.5816,1.5816,0,0,0-1.5928,1.5631v4.4827a1.5849,1.5849,0,0,0,1.5928,1.5769h0.1391a1.6358,1.6358,0,0,0,1.578-1.3418,0.54,0.54,0,0,1,.5312-0.4573,0.496,0.496,0,0,1,.5164.5124v0.0965A2.6255,2.6255,0,0,1,377.0615,91.3687Z"/><path class="cls-1" d="M376.7261,94.2679h-0.14a1.3781,1.3781,0,0,1-1.336-.9859l-0.01-.0728a0.7667,0.7667,0,0,1-.0141-0.1251,0.6494,0.6494,0,0,1,.676-0.6308,0.6225,0.6225,0,0,1,.61.4636,0.0738,0.0738,0,0,0,.0743.0492h0.14a0.0726,0.0726,0,0,0,.0784-0.0618V92.7666a0.0823,0.0823,0,0,0-.0784-0.0753h-0.0693a0.6546,0.6546,0,0,1-.6489-0.6585V91.6a2.9075,2.9075,0,0,1-2.3315-2.8317V84.2861a2.8947,2.8947,0,0,1,2.91-2.8719h0.14a2.8731,2.8731,0,0,1,2.88,2.4766l0.003,0.1185a0.7542,0.7542,0,0,1-.7735.769,0.7968,0.7968,0,0,1-.7815-0.6559,1.3744,1.3744,0,0,0-1.328-1.1421h-0.14a1.3219,1.3219,0,0,0-1.335,1.3059v4.4826a1.3289,1.3289,0,0,0,1.335,1.32h0.14a1.3714,1.3714,0,0,0,1.326-1.1366,0.7949,0.7949,0,0,1,.7835-0.6625,0.7546,0.7546,0,0,1,.7735.7695v0.0964a2.8816,2.8816,0,0,1-2.2009,2.4138,1.3572,1.3572,0,0,1,.7062,1.1974v0.1376A1.3777,1.3777,0,0,1,376.7261,94.2679Zm-0.9744-1.1065a0.8667,0.8667,0,0,0,.8347.5922h0.14a0.8628,0.8628,0,0,0,.8739-0.8493V92.7666a0.85,0.85,0,0,0-.6117-0.8187l-0.1838-.0552V91.14l0.227-.0266a2.3613,2.3613,0,0,0,2.0663-1.995l-0.003-.06a0.2429,0.2429,0,0,0-.2592-0.2551,0.2825,0.2825,0,0,0-.28.2551,1.88,1.88,0,0,1-1.8292,1.5439h-0.14a1.8439,1.8439,0,0,1-1.8493-1.8342V84.2861a1.8372,1.8372,0,0,1,1.8493-1.82h0.14a1.881,1.881,0,0,1,1.83,1.5469,0.2862,0.2862,0,0,0,.2793.2511,0.2424,0.2424,0,0,0,.2592-0.2546V83.927a2.36,2.36,0,0,0-2.3686-1.9985h-0.14a2.38,2.38,0,0,0-2.3958,2.3576v4.4826a2.3942,2.3942,0,0,0,2.1065,2.3586l0.225,0.0281v0.8774a0.1454,0.1454,0,0,0,.1346.1441h0.0693a0.5991,0.5991,0,0,1,.5927.59v0.1376a0.5856,0.5856,0,0,1-.5927.5761h-0.14a0.5891,0.5891,0,0,1-.5675-0.4174,0.1118,0.1118,0,0,0-.1165-0.0954,0.1487,0.1487,0,0,0-.1617.1165C375.7457,93.1147,375.75,93.1393,375.7517,93.1614Z"/><path class="cls-1" d="M388.89,91.3963a0.5084,0.5084,0,0,1-.5025-0.3729l-0.6147-1.992h-3.45l-0.6286,1.992a0.4931,0.4931,0,0,1-.4886.3729,0.52,0.52,0,0,1-.5443-0.5116,0.7,0.7,0,0,1,.0278-0.1662l2.7231-8.66a0.7149,0.7149,0,0,1,1.2711,0l2.7231,8.66a0.7,0.7,0,0,1,.0278.1662A0.52,0.52,0,0,1,388.89,91.3963Zm-0.5173-11.44a1.8451,1.8451,0,0,1-1.48.5116,12.889,12.889,0,0,1-1.8293-.4289,0.8,0.8,0,0,0-.573.2351,0.5659,0.5659,0,0,1-.4052.18,0.6336,0.6336,0,0,1-.6-0.6089,0.5514,0.5514,0,0,1,.153-0.3591,1.6115,1.6115,0,0,1,1.3407-.5813,17.2026,17.2026,0,0,1,1.9414.4289,1.2726,1.2726,0,0,0,.74-0.304,0.7488,0.7488,0,0,1,.3634-0.0973,0.5813,0.5813,0,0,1,.5721.5675A0.6,0.6,0,0,1,388.3728,79.9567Zm-2.3318,3.5965L384.6586,87.98h2.7787Z"/><path class="cls-1" d="M388.89,91.6537a0.7658,0.7658,0,0,1-.7474-0.5525l-0.56-1.8126h-3.0708l-0.5726,1.8121a0.7463,0.7463,0,0,1-.7333.553,0.7776,0.7776,0,0,1-.8016-0.769,0.8975,0.8975,0,0,1,.03-0.21l2.7323-8.693a0.9681,0.9681,0,0,1,1.7609-.004l2.7232,8.6634a0.9289,0.9289,0,0,1,.04.2436A0.7776,0.7776,0,0,1,388.89,91.6537Zm-4.7553-2.8794h3.8282l0.671,2.1733a0.2517,0.2517,0,0,0,.2561.1919,0.2626,0.2626,0,0,0,.2873-0.2546,0.5757,0.5757,0,0,0-.0191-0.0994l-2.7192-8.6488a0.462,0.462,0,0,0-.7835.005l-2.7212,8.6543a0.5544,0.5544,0,0,0-.0151.0889,0.2626,0.2626,0,0,0,.2873.2546,0.2392,0.2392,0,0,0,.2431-0.1939Zm3.6534-.5374h-3.4786l1.7308-5.5424Zm-2.7795-.5143h2.0783l-1.0447-3.31Zm1.8845-6.9969a3.6029,3.6029,0,0,1-1.29-.2813,0.8175,0.8175,0,0,0-.9312.0131,0.8251,0.8251,0,0,1-.5866.2541,0.8958,0.8958,0,0,1-.8568-0.8659,0.8,0.8,0,0,1,.218-0.5294,1.88,1.88,0,0,1,1.5329-.6685,3.8665,3.8665,0,0,1,1.3079.2707,2.1751,2.1751,0,0,0,.6338.1582,0.8666,0.8666,0,0,0,.5173-0.2059,1.0207,1.0207,0,0,1,.0964-0.0643,1.0066,1.0066,0,0,1,.4892-0.1311,0.8381,0.8381,0,0,1,.83.8247,0.85,0.85,0,0,1-.3094.6479l-0.005.004A2.0847,2.0847,0,0,1,386.8927,80.7256Zm-1.8292-.9432a2.14,2.14,0,0,1,.7162.1793,3.141,3.141,0,0,0,1.113.25,1.59,1.59,0,0,0,1.31-.448,0.3381,0.3381,0,0,0,.1366-0.2632,0.3251,0.3251,0,0,0-.3154-0.31,0.4919,0.4919,0,0,0-.2381.0648,1.4373,1.4373,0,0,1-.8649.3365,2.5342,2.5342,0,0,1-.8016-0.1863,3.3825,3.3825,0,0,0-1.14-.2426,1.3654,1.3654,0,0,0-1.1522.5,0.2947,0.2947,0,0,0-.0844.1833,0.3411,0.3411,0,0,0,.5675.2466A1.05,1.05,0,0,1,385.0635,79.7824Z"/><path class="cls-1" d="M395.7786,91.3963h-0.1391a2.6393,2.6393,0,0,1-2.6535-2.6276V84.286a2.6284,2.6284,0,0,1,2.6535-2.6147h0.1391a2.6252,2.6252,0,0,1,2.64,2.6147v4.4827A2.6274,2.6274,0,0,1,395.7786,91.3963Zm1.578-7.0965a1.5717,1.5717,0,0,0-1.578-1.5769h-0.1391a1.5816,1.5816,0,0,0-1.5928,1.5631v4.4827a1.5849,1.5849,0,0,0,1.5928,1.5769h0.1391a1.5723,1.5723,0,0,0,1.578-1.5769V84.3Z"/><path class="cls-1" d="M395.7786,91.6537h-0.14a2.9012,2.9012,0,0,1-2.91-2.8849V84.2861a2.8947,2.8947,0,0,1,2.91-2.8719h0.14a2.8879,2.8879,0,0,1,2.897,2.8719v4.4826A2.8945,2.8945,0,0,1,395.7786,91.6537Zm-0.14-9.7252a2.38,2.38,0,0,0-2.3958,2.3576v4.4826a2.3859,2.3859,0,0,0,2.3958,2.3706h0.14a2.3792,2.3792,0,0,0,2.3827-2.3706V84.2861a2.373,2.373,0,0,0-2.3827-2.3576h-0.14Zm0.14,8.6744h-0.14a1.8439,1.8439,0,0,1-1.8493-1.8342V84.2861a1.8372,1.8372,0,0,1,1.8493-1.82h0.14A1.8369,1.8369,0,0,1,397.6139,84.3v4.4691A1.837,1.837,0,0,1,395.7786,90.6029Zm-0.14-7.6227a1.3219,1.3219,0,0,0-1.335,1.3059v4.4826a1.3289,1.3289,0,0,0,1.335,1.32h0.14a1.322,1.322,0,0,0,1.3209-1.32V84.3a1.3216,1.3216,0,0,0-1.3209-1.3194h-0.14Z"/><path class="cls-1" d="M410.0833,91.3963h-0.1391a2.6393,2.6393,0,0,1-2.6535-2.6276V84.3a2.6313,2.6313,0,0,1,2.6535-2.6285h0.1391a2.6376,2.6376,0,0,1,2.6535,2.2555V84.01a0.5064,0.5064,0,0,1-.53.5116,0.52,0.52,0,0,1-.5312-0.4427,1.5636,1.5636,0,0,0-1.5919-1.3556h-0.1391a1.5816,1.5816,0,0,0-1.5928,1.5631v4.4827a1.5849,1.5849,0,0,0,1.5928,1.5769h0.1391a1.5842,1.5842,0,0,0,1.5919-1.5769V87.15h-1.4659a0.5258,0.5258,0,1,1,0-1.0516h1.9971a0.5473,0.5473,0,0,1,.53.5262v2.1444A2.6393,2.6393,0,0,1,410.0833,91.3963Z"/><path class="cls-1" d="M410.0828,91.6537h-0.1386a2.9014,2.9014,0,0,1-2.9111-2.8849V84.3a2.9015,2.9015,0,0,1,2.9111-2.8855h0.1386a2.8885,2.8885,0,0,1,2.9091,2.4771l0.002,0.118a0.7631,0.7631,0,0,1-.7875.769,0.779,0.779,0,0,1-.7845-0.6529,1.3185,1.3185,0,0,0-1.339-1.1451h-0.1386a1.3228,1.3228,0,0,0-1.336,1.3059v4.4826a1.33,1.33,0,0,0,1.336,1.32h0.1386a1.3289,1.3289,0,0,0,1.335-1.32V87.4066h-1.2084a0.7828,0.7828,0,1,1,0-1.5655h1.997a0.8054,0.8054,0,0,1,.7875.783v2.1446A2.9014,2.9014,0,0,1,410.0828,91.6537Zm-0.1386-9.7252A2.3866,2.3866,0,0,0,407.5474,84.3v4.4691a2.3862,2.3862,0,0,0,2.3968,2.3706h0.1386a2.3862,2.3862,0,0,0,2.3968-2.3706V86.6241a0.29,0.29,0,0,0-.2732-0.2687h-1.997a0.2685,0.2685,0,1,0,0,.5369h1.7227v1.8764a1.8439,1.8439,0,0,1-1.8493,1.8342h-0.1386a1.8441,1.8441,0,0,1-1.85-1.8342V84.2861a1.8374,1.8374,0,0,1,1.85-1.82h0.1386a1.8244,1.8244,0,0,1,1.8443,1.562,0.2673,0.2673,0,0,0,.2793.2361,0.2533,0.2533,0,0,0,.2732-0.2546V83.927a2.3743,2.3743,0,0,0-2.3968-1.9985h-0.1386Z"/><path class="cls-1" d="M421.84,91.3136h-4.3715a0.5465,0.5465,0,0,1-.53-0.5253V82.28a0.5465,0.5465,0,0,1,.53-0.5253H421.84a0.5258,0.5258,0,1,1,0,1.0516h-3.8411v3.0427h2.6674a0.5258,0.5258,0,1,1,0,1.0516h-2.6674v3.3614H421.84A0.5258,0.5258,0,1,1,421.84,91.3136Z"/><path class="cls-1" d="M421.84,91.5708H417.468a0.8053,0.8053,0,0,1-.7875-0.7825V82.28a0.8053,0.8053,0,0,1,.7875-0.7825H421.84a0.783,0.783,0,1,1,0,1.566h-3.5841v2.5283h2.4108a0.783,0.783,0,1,1,0,1.566h-2.4108v2.8468H421.84A0.783,0.783,0,1,1,421.84,91.5708Zm-4.3716-9.5589a0.2892,0.2892,0,0,0-.2732.2682v8.5082a0.2892,0.2892,0,0,0,.2732.2682H421.84a0.2687,0.2687,0,1,0,0-.5374h-4.0984V86.6437h2.9251a0.2687,0.2687,0,1,0,0-.5374h-2.9251v-3.557H421.84a0.2687,0.2687,0,1,0,0-.5374H417.468Z"/><path class="cls-1" d="M428.6682,91.3963h-0.1391a2.6393,2.6393,0,0,1-2.6535-2.6276V84.286a2.6284,2.6284,0,0,1,2.6535-2.6147h0.1391a2.6252,2.6252,0,0,1,2.64,2.6147v4.4827A2.6274,2.6274,0,0,1,428.6682,91.3963Zm1.578-7.0965a1.5717,1.5717,0,0,0-1.578-1.5769h-0.1391a1.5816,1.5816,0,0,0-1.5928,1.5631v4.4827a1.5849,1.5849,0,0,0,1.5928,1.5769h0.1391a1.5723,1.5723,0,0,0,1.578-1.5769V84.3Z"/><path class="cls-1" d="M428.6683,91.6537h-0.14a2.9012,2.9012,0,0,1-2.91-2.8849V84.2861a2.8947,2.8947,0,0,1,2.91-2.8719h0.14a2.8879,2.8879,0,0,1,2.897,2.8719v4.4826A2.8945,2.8945,0,0,1,428.6683,91.6537Zm-0.14-9.7252a2.38,2.38,0,0,0-2.3958,2.3576v4.4826a2.3859,2.3859,0,0,0,2.3958,2.3706h0.14a2.3792,2.3792,0,0,0,2.3827-2.3706V84.2861a2.373,2.373,0,0,0-2.3827-2.3576h-0.14Zm0.14,8.6744h-0.14a1.8439,1.8439,0,0,1-1.8493-1.8342V84.2861a1.8372,1.8372,0,0,1,1.8493-1.82h0.14A1.8369,1.8369,0,0,1,430.5035,84.3v4.4691A1.837,1.837,0,0,1,428.6683,90.6029Zm-0.14-7.6227a1.3219,1.3219,0,0,0-1.335,1.3059v4.4826a1.3289,1.3289,0,0,0,1.335,1.32h0.14a1.322,1.322,0,0,0,1.3209-1.32V84.3a1.3216,1.3216,0,0,0-1.3209-1.3194h-0.14Z"/><path class="cls-1" d="M438.1893,91.3963H438.05a2.6393,2.6393,0,0,1-2.6535-2.6276V84.3a2.6313,2.6313,0,0,1,2.6535-2.6285h0.1391a2.6376,2.6376,0,0,1,2.6535,2.2555V84.01a0.5064,0.5064,0,0,1-.53.5116,0.52,0.52,0,0,1-.5312-0.4427,1.5636,1.5636,0,0,0-1.5919-1.3556H438.05a1.5816,1.5816,0,0,0-1.5928,1.5631v4.4827a1.5849,1.5849,0,0,0,1.5928,1.5769h0.1391a1.5842,1.5842,0,0,0,1.5919-1.5769V87.15h-1.4659a0.5258,0.5258,0,1,1,0-1.0516h1.9971a0.5473,0.5473,0,0,1,.53.5262v2.1444A2.6393,2.6393,0,0,1,438.1893,91.3963Z"/><path class="cls-1" d="M438.189,91.6537H438.05a2.9014,2.9014,0,0,1-2.9111-2.8849V84.3a2.9015,2.9015,0,0,1,2.9111-2.8855h0.1386a2.8885,2.8885,0,0,1,2.9091,2.4771l0.002,0.118a0.7631,0.7631,0,0,1-.7875.769,0.779,0.779,0,0,1-.7845-0.6529,1.3185,1.3185,0,0,0-1.339-1.1451H438.05a1.3228,1.3228,0,0,0-1.336,1.3059v4.4826a1.33,1.33,0,0,0,1.336,1.32h0.1386a1.3289,1.3289,0,0,0,1.335-1.32V87.4066h-1.2084a0.7828,0.7828,0,1,1,0-1.5655h1.997a0.8054,0.8054,0,0,1,.7875.783v2.1446A2.9014,2.9014,0,0,1,438.189,91.6537ZM438.05,81.9285A2.3866,2.3866,0,0,0,435.6536,84.3v4.4691a2.3862,2.3862,0,0,0,2.3968,2.3706h0.1386a2.3862,2.3862,0,0,0,2.3968-2.3706V86.6241a0.29,0.29,0,0,0-.2732-0.2687h-1.997a0.2685,0.2685,0,1,0,0,.5369h1.7227v1.8764a1.8439,1.8439,0,0,1-1.8493,1.8342H438.05a1.8441,1.8441,0,0,1-1.85-1.8342V84.2861a1.8374,1.8374,0,0,1,1.85-1.82h0.1386a1.8244,1.8244,0,0,1,1.8443,1.562,0.2673,0.2673,0,0,0,.2793.2361,0.2533,0.2533,0,0,0,.2732-0.2546V83.927a2.3743,2.3743,0,0,0-2.3968-1.9985H438.05Z"/><path class="cls-1" d="M448.6607,87.0531l1.7319,3.5827a0.526,0.526,0,0,1-.5034.76,0.5087,0.5087,0,0,1-.4608-0.304L447.53,87.1358h-1.425v3.7351a0.53,0.53,0,0,1-1.0607,0V82.28a0.5465,0.5465,0,0,1,.53-0.5253h2.3466a2.6393,2.6393,0,0,1,2.6526,2.6285v0.124A2.6106,2.6106,0,0,1,448.6607,87.0531Zm0.852-2.67a1.5842,1.5842,0,0,0-1.5919-1.5769h-1.8162v3.2778h1.8719a1.5368,1.5368,0,0,0,1.5363-1.5769v-0.124Z"/><path class="cls-1" d="M449.89,91.6537a0.7623,0.7623,0,0,1-.69-0.445l-1.8312-3.8156h-1.0065v3.4781a0.7879,0.7879,0,0,1-1.5751,0V82.28a0.8053,0.8053,0,0,1,.7875-0.7825h2.3465a2.9017,2.9017,0,0,1,2.91,2.886v0.1241a2.8683,2.8683,0,0,1-1.8111,2.6956l1.6042,3.32A0.7832,0.7832,0,0,1,449.89,91.6537Zm-4.0421-4.7749h1.8443l1.9688,4.1024a0.2529,0.2529,0,0,0,.229.1582,0.2712,0.2712,0,0,0,.3014-0.2682,0.2781,0.2781,0,0,0-.0281-0.121l-1.8664-3.8613,0.2953-.0834a2.3582,2.3582,0,0,0,1.7247-2.2978V84.3835a2.3865,2.3865,0,0,0-2.3958-2.3716h-2.3465a0.2892,0.2892,0,0,0-.2732.2682v8.5911a0.2733,0.2733,0,0,0,.5465,0V86.8787Zm2.13-.5374h-2.13v-3.792h2.0733a1.8439,1.8439,0,0,1,1.8493,1.8342v0.1241A1.7945,1.7945,0,0,1,447.9769,86.3413Zm-1.6153-.5143h1.6153a1.2856,1.2856,0,0,0,1.2787-1.3194V84.3835a1.3289,1.3289,0,0,0-1.335-1.32h-1.559V85.827Z"/><path class="cls-1" d="M459.8224,91.0234l-0.6286-1.992h-3.45l-0.6138,1.992a0.5322,0.5322,0,0,1-1.02-.3049l2.7231-8.6734a0.7276,0.7276,0,0,1,1.2711,0l2.7231,8.6734A0.5251,0.5251,0,1,1,459.8224,91.0234Zm-1.1311-11.1081-2.2066.9956a0.501,0.501,0,0,1-.2374.0551,0.5362,0.5362,0,0,1-.5173-0.5391,0.477,0.477,0,0,1,.3078-0.4564l2.1918-1.01a0.83,0.83,0,0,1,.2521-0.0551,0.5492,0.5492,0,0,1,.5164.5529A0.4792,0.4792,0,0,1,458.6913,79.9153Zm-1.2155,3.6378L456.08,87.98h2.7787Z"/><path class="cls-1" d="M454.6358,91.6577a0.8435,0.8435,0,0,1-.6168-0.2672,0.7453,0.7453,0,0,1-.1537-0.7494l2.7232-8.6729a0.9774,0.9774,0,0,1,1.7619.001l2.7222,8.6724a0.7494,0.7494,0,0,1-.1547.7529,0.83,0.83,0,0,1-.7805.2441,0.7591,0.7591,0,0,1-.5605-0.5379l-0.5716-1.8121h-3.0718l-0.5575,1.8106a0.7618,0.7618,0,0,1-.5635.5389A0.8082,0.8082,0,0,1,454.6358,91.6577Zm2.8327-9.7287a0.3965,0.3965,0,0,0-.3887.1919l-2.7242,8.6744a0.2344,0.2344,0,0,0,.0422.2476,0.33,0.33,0,0,0,.3024.0934,0.2491,0.2491,0,0,0,.1838-0.1888l0.67-2.1733h3.8292l0.6851,2.1733a0.2482,0.2482,0,0,0,.1818.1893,0.3137,0.3137,0,0,0,.2893-0.0909,0.2405,0.2405,0,0,0,.0432-0.25l-2.7232-8.6739A0.3986,0.3986,0,0,0,457.4685,81.929Zm1.7388,6.3078h-3.4786l1.7478-5.5424Zm-2.7775-.5143h2.0783l-1.0336-3.31Zm-0.1828-6.4992a0.7976,0.7976,0,0,1-.7745-0.7966,0.7287,0.7287,0,0,1,.4641-0.6926l2.1858-1.0075a1.0891,1.0891,0,0,1,.36-0.0789,0.8034,0.8034,0,0,1,.7735.81,0.7329,0.7329,0,0,1-.4611.6931l-2.2039.9945A0.7505,0.7505,0,0,1,456.247,81.2233Zm2.235-2.0613a0.6466,0.6466,0,0,0-.1688.0417l-2.1677,1a0.225,0.225,0,0,0-.1587.223,0.2836,0.2836,0,0,0,.3857.2531l2.2159-1a0.2237,0.2237,0,0,0,.1527-0.222A0.2957,0.2957,0,0,0,458.4821,79.1621Z"/><path class="cls-1" d="M469.6235,82.8064h-3.8411v3.0427H468.45a0.5258,0.5258,0,1,1,0,1.0516h-2.6674v3.97a0.53,0.53,0,0,1-1.0607,0V82.28a0.5465,0.5465,0,0,1,.53-0.5253h4.3715A0.5258,0.5258,0,1,1,469.6235,82.8064Z"/><path class="cls-1" d="M465.2525,91.6537a0.769,0.769,0,0,1-.7875-0.7825V82.28a0.8053,0.8053,0,0,1,.7875-0.7825h4.3706a0.783,0.783,0,1,1,0,1.566H466.039v2.5283H468.45a0.783,0.783,0,1,1,0,1.566H466.039v3.7132A0.7682,0.7682,0,0,1,465.2525,91.6537Zm0-9.6418a0.2892,0.2892,0,0,0-.2732.2682v8.5911a0.2728,0.2728,0,0,0,.5454,0V86.6437H468.45a0.2688,0.2688,0,1,0,0-.5374h-2.9251v-3.557h4.0984a0.2687,0.2687,0,1,0,0-.5374h-4.3706Z"/><path class="cls-1" d="M474.3992,91.3963a0.51,0.51,0,0,1-.5312-0.5253V82.1976a0.5308,0.5308,0,0,1,1.0616,0v8.6734A0.51,0.51,0,0,1,474.3992,91.3963Z"/><path class="cls-1" d="M474.4,91.6537a0.7693,0.7693,0,0,1-.7885-0.7825V82.1977a0.7885,0.7885,0,0,1,1.5761,0v8.6734A0.769,0.769,0,0,1,474.4,91.6537Zm0-9.7252a0.26,0.26,0,0,0-.2742.2692v8.6734a0.2738,0.2738,0,0,0,.5475,0V82.1977A0.26,0.26,0,0,0,474.4,81.9285Z"/><path class="cls-1" d="M482.0346,91.3963h-0.1391a2.6393,2.6393,0,0,1-2.6535-2.6276V84.286a2.6284,2.6284,0,0,1,2.6535-2.6147h0.1391a2.6315,2.6315,0,0,1,2.6257,2.2555V84.01a0.4953,0.4953,0,0,1-.5164.5116,0.5424,0.5424,0,0,1-.5312-0.4564,1.6358,1.6358,0,0,0-1.578-1.3418h-0.1391a1.5816,1.5816,0,0,0-1.5928,1.5631v4.4827a1.5849,1.5849,0,0,0,1.5928,1.5769h0.1391a1.6358,1.6358,0,0,0,1.578-1.3418,0.54,0.54,0,0,1,.5312-0.4573,0.496,0.496,0,0,1,.5164.5124v0.0965A2.6645,2.6645,0,0,1,482.0346,91.3963Z"/><path class="cls-1" d="M482.0348,91.6537h-0.14a2.9012,2.9012,0,0,1-2.91-2.8849V84.2861a2.8947,2.8947,0,0,1,2.91-2.8719h0.14a2.8731,2.8731,0,0,1,2.88,2.4766l0.003,0.1185a0.7542,0.7542,0,0,1-.7735.769,0.7968,0.7968,0,0,1-.7815-0.6559,1.3744,1.3744,0,0,0-1.328-1.1421h-0.14a1.3219,1.3219,0,0,0-1.335,1.3059v4.4826a1.3289,1.3289,0,0,0,1.335,1.32h0.14a1.3714,1.3714,0,0,0,1.326-1.1366,0.7949,0.7949,0,0,1,.7835-0.6625,0.7546,0.7546,0,0,1,.7735.7695v0.0964A2.9369,2.9369,0,0,1,482.0348,91.6537Zm-0.14-9.7252a2.38,2.38,0,0,0-2.3958,2.3576v4.4826a2.3859,2.3859,0,0,0,2.3958,2.3706h0.14a2.4143,2.4143,0,0,0,2.3716-2.0236l-0.003-.0568a0.2425,0.2425,0,0,0-.2592-0.2551,0.2825,0.2825,0,0,0-.28.2551,1.88,1.88,0,0,1-1.8292,1.5439h-0.14a1.8439,1.8439,0,0,1-1.8493-1.8342V84.2861a1.8372,1.8372,0,0,1,1.8493-1.82h0.14a1.881,1.881,0,0,1,1.83,1.5469,0.2862,0.2862,0,0,0,.2793.2511,0.2424,0.2424,0,0,0,.2592-0.2546V83.927a2.36,2.36,0,0,0-2.3686-1.9985h-0.14Z"/><path class="cls-1" d="M494.1987,91.3963a0.5084,0.5084,0,0,1-.5025-0.3729l-0.6147-1.992h-3.45l-0.6286,1.992a0.4931,0.4931,0,0,1-.4886.3729,0.52,0.52,0,0,1-.5443-0.5116,0.7,0.7,0,0,1,.0278-0.1662l2.7231-8.66a0.7149,0.7149,0,0,1,1.2711,0l2.7231,8.66a0.7,0.7,0,0,1,.0278.1662A0.52,0.52,0,0,1,494.1987,91.3963ZM491.35,83.5531L489.9672,87.98h2.7787Z"/><path class="cls-1" d="M494.1984,91.6537a0.7658,0.7658,0,0,1-.7474-0.5525l-0.56-1.8126h-3.0708l-0.5726,1.8121a0.7463,0.7463,0,0,1-.7333.553,0.7779,0.7779,0,0,1-.8016-0.769,0.8974,0.8974,0,0,1,.03-0.21l2.7323-8.693a0.9681,0.9681,0,0,1,1.7609-.004l2.7232,8.6634a0.9289,0.9289,0,0,1,.04.2436A0.7779,0.7779,0,0,1,494.1984,91.6537Zm-4.7553-2.8794h3.8282l0.671,2.1733a0.2517,0.2517,0,0,0,.2561.1919,0.2626,0.2626,0,0,0,.2873-0.2546,0.5757,0.5757,0,0,0-.0191-0.0994l-2.7192-8.6488a0.462,0.462,0,0,0-.7835.005l-2.7212,8.6543a0.5544,0.5544,0,0,0-.0151.0889,0.2626,0.2626,0,0,0,.2873.2546,0.2392,0.2392,0,0,0,.2431-0.1939Zm3.6534-.5374h-3.4786l1.7308-5.5424Zm-2.7795-.5143h2.0783l-1.0447-3.31Z"/><path class="cls-2" d="M97.8782,26.8917L80.5734,44.0332a2.5321,2.5321,0,0,1,.6274,2.6163l-15.49,46.0321a2.59,2.59,0,0,1-4.8407.16L52.2374,72.103l-0.0009,0-31.301,31.0056a54.774,54.774,0,0,0,76.9427,0A53.5344,53.5344,0,0,0,97.8782,26.8917Z"/><path class="cls-3" d="M31.3013,63.5519a2.55,2.55,0,0,1,.1614-4.7951l46.4706-15.344a2.5465,2.5465,0,0,1,1.6438-.0032,2.5576,2.5576,0,0,1,.9962.6235L97.8782,26.8917h0a54.774,54.774,0,0,0-76.9428,0,53.5344,53.5344,0,0,0,0,76.2166h0l31.301-31.0056Z"/></svg>