<svg id="Layer_1" data-name="Layer 1" xmlns="http://www.w3.org/2000/svg" viewBox="0 0 500 500"><defs><style>.cls-1{fill:#ff9d6c;}</style></defs><title>snig_icon_</title><path class="cls-1" d="M264.0212,235.9775V197.3793a14.0225,14.0225,0,1,0-28.0449,0v38.5982H197.3793a14.0225,14.0225,0,1,0,0,28.0449h38.5969v38.5982a14.0225,14.0225,0,1,0,28.0449,0V264.0225h38.6a14.0225,14.0225,0,1,0,0-28.0449h-38.6Z"/><path class="cls-1" d="M249.9987,135.7143A114.2857,114.2857,0,1,0,364.2857,250,114.4134,114.4134,0,0,0,249.9987,135.7143ZM336.2408,250a86.2408,86.2408,0,1,1-86.2421-86.2408A86.3394,86.3394,0,0,1,336.2408,250Z"/></svg>