<svg id="Layer_1" data-name="Layer 1" xmlns="http://www.w3.org/2000/svg" viewBox="0 0 500 500"><defs><style>.cls-1{fill:#61b4e4;}.cls-2{fill:#a7d1ef;}.cls-3{fill:#333;}</style></defs><title>snig_icon_</title><path class="cls-1" d="M423.2412,423.2412c95.6783-95.6783,95.6785-250.8037,0-346.482L76.7592,423.2414C172.4375,518.92,327.5629,518.9195,423.2412,423.2412Z"/><path class="cls-2" d="M76.7588,76.7588c-95.6785,95.6785-95.6783,250.8039,0,346.4822l0,0L423.2414,76.7592l0,0C327.5627-18.92,172.4373-18.92,76.7588,76.7588Z"/><path class="cls-3" d="M342.3122,188.472c-1.2037-6.7008-5.0734-13.4763-11.1913-19.5932-6.1179-6.12-12.8943-9.99-19.5971-11.1913-7.0132-1.2574-13.4136.5949-18.0333,5.2146-1.0843,1.0863-126.1041,126.1031-127.8111,127.8022a8.1019,8.1019,0,0,0-2.3039,4.4874l-5.9727,38.2264a8.0343,8.0343,0,0,0,6.7088,9.1838,8.1876,8.1876,0,0,0,1.2276.0945,7.9981,7.9981,0,0,0,1.2435-.0965l32.2567-5.0475c7.4191-1.1609,9.9518-1.5578,11.49-4.2766L337.1,206.5054C341.7193,201.8866,343.57,195.4823,342.3122,188.472Zm-36.2816,26.3746-98.27,98.27-20.8824-20.88,98.2742-98.2682ZM193.9629,322.0479l-18.9824,2.97,2.9684-18.9844ZM304.8568,174.2646c0.4357-.4347,1.4524-1.4574,4.64-0.5611a25.3649,25.3649,0,0,1,10.3139,6.59,25.0571,25.0571,0,0,1,6.4422,10.0721c0.9391,3.3216-.1174,4.377-0.5173,4.7759l-8.34,8.34-20.8784-20.8774Zm-2.1607-2.1607h0Z"/></svg>