<svg id="Layer_1" data-name="Layer 1" xmlns="http://www.w3.org/2000/svg" viewBox="0 0 500 500"><defs><style>.cls-1{fill:#61b4e4;}</style></defs><title>snig_web-drafts_007</title><circle class="cls-1" cx="250.0039" cy="250.0001" r="25.964"/><path class="cls-1" d="M174.5423,262.2H88.9584a12.2,12.2,0,0,1,0-24.4h74.23A87.6665,87.6665,0,0,1,311.99,188.0143a12.2,12.2,0,1,1-17.2536,17.2532A63.2613,63.2613,0,0,0,186.7424,250,12.2,12.2,0,0,1,174.5423,262.2Z"/><path class="cls-1" d="M249.9971,337.6617A87.0914,87.0914,0,0,1,188.01,311.9859a12.2,12.2,0,0,1,17.2536-17.2536A63.2618,63.2618,0,0,0,313.2586,250a12.2,12.2,0,0,1,12.2-12.2h85.5829a12.2,12.2,0,0,1,0,24.4H336.8124A87.7962,87.7962,0,0,1,249.9971,337.6617Z"/></svg>
