<svg id="Layer_1" data-name="Layer 1" xmlns="http://www.w3.org/2000/svg" viewBox="0 0 500 500"><defs><style>.cls-1{fill:#d0d0d0;}.cls-2{fill:#e3e3e3;}.cls-3{fill:#333;}</style></defs><title>snig_icon_</title><path class="cls-1" d="M423.2412,423.2412c95.6783-95.6783,95.6785-250.8037,0-346.482L76.7592,423.2414C172.4375,518.92,327.5629,518.9195,423.2412,423.2412Z"/><path class="cls-2" d="M76.7588,76.7588c-95.6785,95.6785-95.6783,250.8039,0,346.4822l0,0L423.2414,76.7592l0,0C327.5627-18.92,172.4373-18.92,76.7588,76.7588Z"/><path class="cls-3" d="M261.3775,238.6233V207.3165a11.3736,11.3736,0,1,0-22.7471,0v31.3068H207.3246a11.3736,11.3736,0,1,0,0,22.7471H238.63v31.3068a11.3736,11.3736,0,1,0,22.7471,0V261.37h31.3079a11.3736,11.3736,0,1,0,0-22.7471H261.3775Z"/><path class="cls-3" d="M250.0039,157.3a92.6966,92.6966,0,1,0,92.6976,92.6966A92.8,92.8,0,0,0,250.0039,157.3Zm69.9505,92.6966a69.9495,69.9495,0,1,1-69.9505-69.9495A70.0294,70.0294,0,0,1,319.9544,249.9969Z"/></svg>