<svg id="Layer_1" data-name="Layer 1" xmlns="http://www.w3.org/2000/svg" viewBox="0 0 500 500"><defs><style>.cls-1{fill:#ff9d6c;}</style></defs><title>snig_web-drafts_007</title><path class="cls-1" d="M345.4834,269.1743a72.1732,72.1732,0,0,0-39.0716-24.6066V170.4084a7.46,7.46,0,0,0-2.1993-5.3307L255.21,116.0744a7.3148,7.3148,0,0,0-5.21-2.0876l-104.039.0013c-0.232-.011-0.4631-0.011-0.695,0-0.02.0008-.0406,0.0021-0.061,0.0042a7.3852,7.3852,0,0,0-6.7284,7.4179V335.7324a7.4339,7.4339,0,0,0,7.4242,7.4234h78.177A71.7339,71.7339,0,1,0,345.4834,269.1743Zm-88.06-106.2v-23.69l23.6906,23.69H257.4238ZM346.6754,314.3a56.8728,56.8728,0,1,1-56.8728-56.8728A56.937,56.937,0,0,1,346.6754,314.3Zm-173.1571-13.546c-0.232-.011-0.4648-0.011-0.6967,0a7.43,7.43,0,0,0,.6349,14.8463h44.6385a72.101,72.101,0,0,0,1.407,12.708H153.3247V128.8344h89.2515v41.5638A7.434,7.434,0,0,0,250,177.8221h41.5638v64.7969c-0.5816-.0229-1.1716-0.0394-1.7617-0.0394a71.6374,71.6374,0,0,0-20.7565,3.1259c-0.2057-.0288-0.4241-0.05-0.6755-0.0643l-94.854.0017c-0.23-.011-0.4631-0.011-0.695,0a7.43,7.43,0,0,0,.6349,14.8459H242.49a71.7419,71.7419,0,0,0-11.4445,12.7084l-57.5289.0013c-0.23-.011-0.4631-0.011-0.695,0a7.43,7.43,0,0,0,.6349,14.8463h49.63a70.9931,70.9931,0,0,0-3.7324,12.708Z"/><path class="cls-1" d="M222.34,172.02c0.0364,0.0008.072,0.0008,0.1084,0.0008a7.4239,7.4239,0,0,0,7.42-7.3184V164.491a7.4233,7.4233,0,0,0-7.2617-7.583,7.5755,7.5755,0,0,0-.9735.0428A7.5607,7.5607,0,0,0,222.34,172.02Z"/><path class="cls-1" d="M222.34,219.0781c0.0364,0.0008.072,0.0008,0.1075,0.0008a7.4247,7.4247,0,0,0,7.4208-7.3184v-25.79a7.424,7.424,0,0,0-7.2625-7.583,7.6056,7.6056,0,0,0-.9727.0432,7.3763,7.3763,0,0,0-6.6115,7.5114V211.55A7.4245,7.4245,0,0,0,222.34,219.0781Z"/><path class="cls-1" d="M318.5912,306.3581h-21.86v-21.86a7.9415,7.9415,0,1,0-15.8829,0v21.86H258.9891a7.9415,7.9415,0,1,0,0,15.8829h21.8587v21.86a7.9415,7.9415,0,1,0,15.8829,0v-21.86h21.86A7.9415,7.9415,0,1,0,318.5912,306.3581Z"/></svg>
