<svg id="Layer_1" data-name="Layer 1" xmlns="http://www.w3.org/2000/svg" viewBox="0 0 500 500"><defs><style>.cls-1{fill:#7cdfa8;}</style></defs><title>snig_web-drafts_007</title><path class="cls-1" d="M293.7385,247.4923a8.3857,8.3857,0,0,1-2.89-16.2208,37.6381,37.6381,0,1,0-48.7191-48.2253,8.384,8.384,0,1,1-15.73-5.808A54.41,54.41,0,1,1,296.82,246.9407,8.365,8.365,0,0,1,293.7385,247.4923Z"/><path class="cls-1" d="M310.719,277.6743a8.3858,8.3858,0,0,1-3.3885-16.0132A72.0536,72.0536,0,1,0,206.373,184.2651a8.3842,8.3842,0,1,1-16.5451-2.7273,88.82,88.82,0,1,1,124.4656,95.3778A8.3556,8.3556,0,0,1,310.719,277.6743Z"/><path class="cls-1" d="M190.7542,385.1635l-51.8293-53.0613c-11.1119-11.3761-2.3225-68.1844,7.0834-114.1478a26.2818,26.2818,0,0,1,52.5349,1.5008l-0.2592,22.0721,62.71-61.2539a23.3165,23.3165,0,1,1,32.585,33.36l-25.851,25.2508a23.0192,23.0192,0,0,1,5.0608,3.9266,23.311,23.311,0,0,1,6.1433,21.0516,23.2988,23.2988,0,0,1,15.07,26.7512,23.32,23.32,0,0,1,8.5558,38.6721l-41.5841,40.6186C232.55,397.6678,201.9294,396.6043,190.7542,385.1635ZM151.4567,320.652l51.4342,52.6567c3.5644,3.6491,24.2572,5.92,46.2285-15.5415l41.5841-40.6186a6.3508,6.3508,0,0,0-8.8753-9.0863,8.4828,8.4828,0,0,1-11.8548-12.1366l5.6557-5.5244a6.3565,6.3565,0,0,0-8.8832-9.0944A8.4828,8.4828,0,1,1,254.8908,269.17l5.6557-5.5243a6.348,6.348,0,1,0-8.8714-9.0822A8.4828,8.4828,0,1,1,239.82,242.4271l41.9037-40.9308a6.3508,6.3508,0,1,0-8.8753-9.0863L195.49,267.9728a8.4845,8.4845,0,0,1-14.4124-6.168l0.4957-42.5489a9.5276,9.5276,0,0,0-9.1952-9.43,9.3181,9.3181,0,0,0-9.43,9.2032,8.7387,8.7387,0,0,1-.1709,1.6136C154.2849,262.014,147.6154,311.6368,151.4567,320.652Z"/></svg>
