<svg id="Layer_1" data-name="Layer 1" xmlns="http://www.w3.org/2000/svg" viewBox="0 0 500 500"><title>snig_icon_</title><path d="M250,135.7149A114.2851,114.2851,0,1,0,364.2851,250,114.4008,114.4008,0,0,0,250,135.7149Zm0,15.238A99.0471,99.0471,0,1,1,150.9529,250,98.9317,98.9317,0,0,1,250,150.9529Zm0,35.5554a38.2112,38.2112,0,0,0-38.095,38.095,7.62,7.62,0,1,0,15.238.2155q0.0015-.1077,0-0.2155a22.857,22.857,0,1,1,45.714,0c0.0906,10.4332-5.2832,15.7721-12.7777,22.857-3.7473,3.5423-7.908,7.2274-11.4285,12.0634a31.2906,31.2906,0,0,0-6.27,18.4126,7.62,7.62,0,0,0,15.238.2155q0.0015-.1077,0-0.2155a14.7486,14.7486,0,0,1,3.3333-9.4444c2.23-3.0633,5.7024-6.3126,9.6031-10,7.7878-7.3622,17.6458-17.6588,17.54-33.8887,0-.0284,0-0.0509,0-0.0794A38.2122,38.2122,0,0,0,250,186.5083Zm0,106.6661a10.1587,10.1587,0,1,0,10.1587,10.1587A10.1586,10.1586,0,0,0,250,293.1744Z"/></svg>