<svg id="Layer_1" data-name="Layer 1" xmlns="http://www.w3.org/2000/svg" viewBox="0 0 500 500"><defs><style>.cls-1{fill:#7cdfa8;}</style></defs><title>snig_icon_</title><path class="cls-1" d="M367.9567,338.7l-53.1813-46.7773c21.8632-35.3386,20.6634-78.0816-3.4633-112.5651-24.9986-35.7349-66.51-51.1284-108.3371-40.1692a100.8739,100.8739,0,0,0-61.9513,47.1736,102.1822,102.1822,0,0,0-10.7057,77.4638,100.731,100.731,0,0,0,71.1658,72.6907c33.929,9.435,69.0116,1.1,94.7825-22.2889l52.71,46.3528a14.139,14.139,0,0,0,9.37,3.7052,13.5141,13.5141,0,0,0,4.42-.7523,15.468,15.468,0,0,0,9.96-11.4925A13.923,13.923,0,0,0,367.9567,338.7Zm-76.8393-63.5677c-15.1114,25.9061-42.937,39.4157-72.5915,35.2505-29.6569-4.1615-52.7417-24.8088-60.2488-53.8819-7.5047-29.0706,2.6813-58.4312,26.5846-76.6222A72.3171,72.3171,0,0,1,298.7727,219.71,73.093,73.093,0,0,1,291.1174,275.1325Z"/><path class="cls-1" d="M257.6159,190.7267a8.7925,8.7925,0,0,0-9.1562-.3425,10.47,10.47,0,0,0-5.18,8.71,8.9156,8.9156,0,0,0,4.6145,7.9609,37.5,37.5,0,0,1,15.1551,17.3617,28.9669,28.9669,0,0,1,1.1391,20.2767c-1.8871,5.8631,1.6345,10.4062,6.0912,11.8656a10.2341,10.2341,0,0,0,3.1792.51,8.8923,8.8923,0,0,0,8.7-6.5053,47.8928,47.8928,0,0,0-1.6345-33.4939A56.6578,56.6578,0,0,0,257.6159,190.7267Z"/></svg>