<svg id="Layer_1" data-name="Layer 1" xmlns="http://www.w3.org/2000/svg" viewBox="0 0 500 440"><defs><style>.cls-1{fill:#fff;}.cls-2{fill:#61b4e4;}.cls-3{fill:#7cdfa8;}</style></defs><title>snig_logo</title><path class="cls-1" d="M368.9866,132.8162h-1.6175c-18.509,0-35.58-11.8671-35.58-33.2638,0-4.4949,3.4147-6.6525,6.8286-6.6525a6.4928,6.4928,0,0,1,6.8286,6.8323c0,12.7662,10.4223,19.4187,22.1026,19.4187h1.7972c14.016,0,20.3054-7.1919,20.3054-19.9581,0-14.7439-10.2426-18.8792-21.3838-24.9925-17.2509-9.35-34.6816-14.2044-34.6816-37.0394,0-17.4409,14.9153-30.7462,33.783-30.7462h1.7972c17.2509,0,32.7047,12.2263,32.7047,28.7685,0,4.4949-3.0545,6.6525-6.4692,6.6525a7.1422,7.1422,0,0,1-7.1873-6.4726c-0.8986-8.81-8.4461-15.2834-19.4076-15.2834h-1.6175c-14.7348,0-19.7663,10.7881-19.7663,17.0813,0,12.9457,11.1412,17.2611,20.8446,22.2955,17.97,9.53,35.041,15.4632,35.041,39.9163C403.3087,119.87,390.55,132.8162,368.9866,132.8162Z"/><path class="cls-1" d="M487.1478,132.8162c-2.6951,0-6.6482,0-9.344-6.1134L438.63,38.06v87.9236a6.8286,6.8286,0,1,1-13.6573,0V13.4267c0-4.8546,3.9531-7.0121,8.0867-7.0121,3.9531,0,7.0084.8988,9.1643,5.7537l38.9941,89.0026V13.2469a6.74,6.74,0,0,1,7.0084-6.8323,6.4581,6.4581,0,0,1,6.6489,6.8323V124.7248C494.875,130.6583,491.1016,132.8162,487.1478,132.8162Z"/><path class="cls-1" d="M349.0785,299.8734c-8.6448,0-17.29-5.6674-17.29-16.7035V169.2283c0-11.0361,8.6448-16.7035,17.29-16.7035s17.29,5.6674,17.29,16.7035V283.17C366.3689,294.2061,357.7241,299.8734,349.0785,299.8734Z"/><path class="cls-1" d="M444.4958,362.5112H442.111c-20.27,0-45.0128-10.7379-52.1672-34.3019a20.2849,20.2849,0,0,1-.8944-5.6674c0-9.843,7.75-16.1067,16.3952-16.1067,6.5584,0,12.8184,4.1757,16.6936,11.931,1.7888,3.5793,8.3472,9.843,19.9728,9.843h2.3848c9.2408,0,15.7992-6.86,15.7992-16.1067V293.6093A25.5318,25.5318,0,0,1,443.9,299.8734H442.111a50.5864,50.5864,0,0,1-50.6768-50.409V202.9334a50.3956,50.3956,0,0,1,50.6768-50.4086H443.9c4.77,0,11.6256,1.79,16.3952,6.2637,4.77-4.4738,9.5392-6.2637,17.588-6.2637,9.2408,0,16.992,5.9655,16.992,16.7035V312.1027A50.523,50.523,0,0,1,444.4958,362.5112ZM460.295,203.53c0-9.2467-6.5584-16.7035-15.7992-16.7035H442.111c-9.5392,0-16.0976,7.4568-16.0976,16.7035v45.6361c0,9.2467,6.5584,16.4053,16.0976,16.4053h2.3848c9.2408,0,15.7992-7.1586,15.7992-16.4053V203.53Z"/><path class="cls-2" d="M255.5058,49.3986l-46.65,46.6777a6.9441,6.9441,0,0,1,1.6913,7.1245L168.7884,228.55a6.9592,6.9592,0,0,1-13.0495.4352l-23.2715-56.4724-0.0024-.0009L48.0837,256.9431A146.7128,146.7128,0,0,0,255.5058,49.3986Z"/><path class="cls-3" d="M76.0281,149.2275a6.966,6.966,0,0,1,.435-13.0573l125.2755-41.783a6.8,6.8,0,0,1,4.4315-.0086,6.8856,6.8856,0,0,1,2.6856,1.6978l46.65-46.6777h0A146.7129,146.7129,0,0,0,48.0835,256.943h0L132.465,172.512Z"/><path class="cls-1" d="M12.4612,391.5969H12.1695c-3.3535,0-6.4456-2.1276-6.4456-5.9633a1.1634,1.1634,0,0,1,1.2381-1.1943,1.1708,1.1708,0,0,1,1.236,1.2264c0,2.2882,1.8885,3.4824,4.0039,3.4824h0.3242c2.5389,0,3.6777-1.2906,3.6777-3.5788,0-2.6434-1.8541-3.3861-3.8722-4.482C9.207,379.4114,6.05,378.54,6.05,374.4456c0-3.1272,2.701-5.5137,6.1194-5.5137h0.3242c3.1245,0,5.9249,2.1938,5.9249,5.1584a1.1145,1.1145,0,0,1-1.1732,1.1943,1.2889,1.2889,0,0,1-1.3009-1.1621,3.23,3.23,0,0,0-3.5156-2.74H12.135a3.2543,3.2543,0,0,0-3.5784,3.0629c0,2.3223,2.0162,3.095,3.775,3.9983,3.2542,1.7081,6.3463,2.7719,6.3463,7.1576C18.6779,389.2766,16.3679,391.5969,12.4612,391.5969Z"/><path class="cls-1" d="M12.462,392.1958H12.1694c-3.5,0-7.0444-2.2545-7.0444-6.5621a1.8375,1.8375,0,0,1,3.6732.0316c0,1.9911,1.709,2.8831,3.404,2.8831h0.3231c2.1281,0,3.0786-.9189,3.0786-2.9791s-1.2782-2.7414-3.05-3.6826l-0.508-.2727c-0.4495-.2411-0.9013-0.4671-1.3461-0.6871C8,379.582,5.45,378.3119,5.45,374.4456c0-3.4274,2.9521-6.1126,6.719-6.1126h0.3254c3.5959,0,6.5223,2.5834,6.5223,5.758a1.7054,1.7054,0,0,1-1.7722,1.7933,1.8964,1.8964,0,0,1-1.894-1.6879,2.6583,2.6583,0,0,0-2.9217-2.2147h-0.295a2.6477,2.6477,0,0,0-2.9779,2.464c0,1.7383,1.3672,2.4219,2.9521,3.2143l0.4963,0.2517c0.3371,0.1768.67,0.3441,0.995,0.51,2.9194,1.48,5.6772,2.8784,5.6772,7.179C19.277,389.6686,16.6667,392.1958,12.462,392.1958Zm-5.4993-7.1568a0.58,0.58,0,0,0-.6391.5946c0,3.6849,3.0294,5.3635,5.8457,5.3635H12.462c3.5163,0,5.6163-2.0169,5.6163-5.3962,0-3.5643-2.2147-4.6881-5.0193-6.11-0.3324-.1674-0.67-0.3383-1.0067-0.5162l-0.48-.2423c-1.695-.8475-3.6147-1.8085-3.6147-4.2866a3.8465,3.8465,0,0,1,4.1765-3.6627h0.295a3.8456,3.8456,0,0,1,4.1133,3.2764,0.6816,0.6816,0,0,0,.7023.6262,0.5222,0.5222,0,0,0,.5736-0.5946c0-2.5143-2.3879-4.5593-5.3237-4.5593H12.1694c-3.0949,0-5.52,2.1585-5.52,4.914,0,3.1242,2.0227,4.1321,4.5862,5.408,0.4518,0.2259.9154,0.4577,1.3789,0.7058l0.5033,0.2692c1.812,0.9634,3.6849,1.96,3.6849,4.7407,0,2.6946-1.5194,4.1777-4.2772,4.1777H12.2022c-2.711,0-4.6026-1.6786-4.6026-4.0817A0.58,0.58,0,0,0,6.9628,385.0391Z"/><path class="cls-1" d="M29.4456,391.5969a1.1882,1.1882,0,0,1-1.2381-1.2244V370.1583a1.2371,1.2371,0,0,1,2.4741,0v20.2142A1.1877,1.1877,0,0,1,29.4456,391.5969Z"/><path class="cls-1" d="M29.4467,392.1958a1.7928,1.7928,0,0,1-1.8378-1.8237V370.1578a1.8364,1.8364,0,0,1,3.6709,0v20.2143A1.79,1.79,0,0,1,29.4467,392.1958Zm0-22.6642a0.6062,0.6062,0,0,0-.6391.6262v20.2143a0.6369,0.6369,0,0,0,1.2736,0V370.1578A0.603,0.603,0,0,0,29.4467,369.5316Z"/><path class="cls-1" d="M46.9122,391.5969H46.62c-3.3535,0-6.4456-2.1276-6.4456-5.9633a1.2375,1.2375,0,0,1,2.4741.0321c0,2.2882,1.8885,3.4824,4.0039,3.4824H46.977c2.5389,0,3.6777-1.2906,3.6777-3.5788,0-2.6434-1.8541-3.3861-3.8722-4.482-3.1245-1.676-6.2815-2.5471-6.2815-6.6417,0-3.1272,2.701-5.5137,6.1194-5.5137h0.3242c3.1245,0,5.9249,2.1938,5.9249,5.1584a1.1145,1.1145,0,0,1-1.1732,1.1943,1.2889,1.2889,0,0,1-1.3009-1.1621,3.23,3.23,0,0,0-3.5156-2.74H46.586a3.2543,3.2543,0,0,0-3.5784,3.0629c0,2.3223,2.0162,3.095,3.775,3.9983,3.2542,1.7081,6.3463,2.7719,6.3463,7.1576C53.1288,389.2766,50.8189,391.5969,46.9122,391.5969Z"/><path class="cls-1" d="M46.9114,392.1958h-0.29c-3.5023,0-7.0467-2.2545-7.0467-6.5621a1.8375,1.8375,0,0,1,3.6732.0316c0,1.9911,1.7113,2.8831,3.4063,2.8831H46.977c2.1281,0,3.0786-.9189,3.0786-2.9791s-1.2782-2.7414-3.05-3.6826l-0.508-.2727c-0.4495-.2411-0.9013-0.4659-1.3438-0.6859-2.6993-1.345-5.2511-2.615-5.2511-6.4825,0-3.4274,2.9521-6.1126,6.719-6.1126h0.3231c3.5983,0,6.5247,2.5834,6.5247,5.758a1.7054,1.7054,0,0,1-1.7722,1.7933A1.9017,1.9017,0,0,1,49.8,374.1974a2.6544,2.6544,0,0,0-2.9217-2.2159H46.586a2.6486,2.6486,0,0,0-2.98,2.464c0,1.7371,1.3672,2.4219,2.9521,3.2132l0.4987,0.2528c0.3371,0.1768.67,0.3441,0.995,0.51,2.9194,1.48,5.6772,2.8784,5.6772,7.179C53.7287,389.6686,51.116,392.1958,46.9114,392.1958Zm-5.4993-7.1568a0.58,0.58,0,0,0-.6391.5946c0,3.6849,3.0317,5.3635,5.8481,5.3635h0.29c3.5187,0,5.6187-2.0169,5.6187-5.3962,0-3.5643-2.2147-4.6881-5.0193-6.11-0.3324-.1674-0.67-0.3383-1.0067-0.5162l-0.4823-.2435c-1.695-.8475-3.6147-1.8073-3.6147-4.2854a3.8488,3.8488,0,0,1,4.1789-3.6627h0.2926a3.8424,3.8424,0,0,1,4.1133,3.2775,0.6859,0.6859,0,0,0,.7047.6251,0.5222,0.5222,0,0,0,.5736-0.5946c0-2.5143-2.39-4.5593-5.326-4.5593H46.6211c-3.0949,0-5.52,2.1585-5.52,4.914,0,3.1254,2.0251,4.1332,4.5862,5.4091,0.4542,0.2259.9177,0.4565,1.3789,0.7047l0.5033,0.2692c1.812,0.9634,3.6849,1.96,3.6849,4.7407,0,2.6946-1.5194,4.1777-4.2772,4.1777H46.6539c-2.711,0-4.605-1.6786-4.605-4.0817A0.58,0.58,0,0,0,41.4121,385.0391Z"/><path class="cls-1" d="M71.5012,371.5774h-3.58v18.7951a1.2371,1.2371,0,0,1-2.4741,0V371.5774h-3.58a1.2254,1.2254,0,1,1,0-2.4507h9.635A1.2254,1.2254,0,1,1,71.5012,371.5774Z"/><path class="cls-1" d="M66.6844,392.1958a1.7928,1.7928,0,0,1-1.8378-1.8237V372.177h-2.98a1.8249,1.8249,0,1,1,0-3.65H71.5a1.8249,1.8249,0,1,1,0,3.65H68.52v18.1951A1.7923,1.7923,0,0,1,66.6844,392.1958Zm-4.818-22.47a0.6263,0.6263,0,1,0,0,1.2525h4.1789v19.3937a0.6381,0.6381,0,0,0,1.2759,0V370.9784H71.5a0.6263,0.6263,0,1,0,0-1.2525H61.8664Z"/><path class="cls-1" d="M92.8907,391.4042H82.7025a1.2737,1.2737,0,0,1-1.236-1.2244V370.351a1.2737,1.2737,0,0,1,1.236-1.2244H92.8907a1.2254,1.2254,0,1,1,0,2.4507H83.9386v7.0913h6.2167a1.2254,1.2254,0,1,1,0,2.4507H83.9386v7.834h8.9521A1.2254,1.2254,0,1,1,92.8907,391.4042Z"/><path class="cls-1" d="M92.8907,392.0039H82.7022a1.8769,1.8769,0,0,1-1.8354-1.8237V370.351a1.8769,1.8769,0,0,1,1.8354-1.8237H92.8907a1.8249,1.8249,0,1,1,0,3.65H84.5377V378.07h5.6187a1.8243,1.8243,0,1,1,0,3.6486H84.5377v6.6359h8.3531A1.8249,1.8249,0,1,1,92.8907,392.0039Zm-10.1885-22.278a0.6739,0.6739,0,0,0-.6368.6251V390.18a0.6739,0.6739,0,0,0,.6368.6251H92.8907a0.6263,0.6263,0,1,0,0-1.2525H83.339V380.52h6.8173a0.6258,0.6258,0,1,0,0-1.2513H83.339v-8.29h9.5517a0.6263,0.6263,0,1,0,0-1.2525H82.7022Z"/><path class="cls-1" d="M118.3328,391.5969a1.1893,1.1893,0,0,1-1.2381-1.2244V374.6062l-4.2957,9.7689a1.4391,1.4391,0,0,1-1.3657.839,1.51,1.51,0,0,1-1.4-.839l-4.4274-9.7689v15.7663a1.2361,1.2361,0,0,1-2.4721,0V370.351a1.24,1.24,0,0,1,1.463-1.4191h0.0993a1.4611,1.4611,0,0,1,1.463.9353l5.2076,11.5432,5.1751-11.5432a1.48,1.48,0,0,1,1.4974-.9353h0.0973a1.23,1.23,0,0,1,1.4326,1.4191v20.0215A1.1877,1.1877,0,0,1,118.3328,391.5969Z"/><path class="cls-1" d="M118.3339,392.1958a1.7928,1.7928,0,0,1-1.8378-1.8237V377.4574l-3.1488,7.1591a2.0246,2.0246,0,0,1-1.915,1.1975,2.1064,2.1064,0,0,1-1.9408-1.1823l-3.2869-7.2516v12.992a1.8364,1.8364,0,0,1-3.6709,0V370.351a1.8315,1.8315,0,0,1,2.0625-2.018,2.0912,2.0912,0,0,1,2.1117,1.2981l4.6565,10.3184,4.6284-10.3266a2.0793,2.0793,0,0,1,2.0461-1.29,1.8476,1.8476,0,0,1,2.13,2.018v20.0211A1.7923,1.7923,0,0,1,118.3339,392.1958Zm-0.6391-20.4414v18.6176a0.6381,0.6381,0,0,0,1.2759,0V370.351c0-.6052-0.1264-0.8194-0.8334-0.8194a0.9414,0.9414,0,0,0-1.0465.5747l-5.7217,12.7649-5.7568-12.7567a0.8757,0.8757,0,0,0-.9154-0.5829c-0.84,0-.9645.2048-0.9645,0.8194v20.0211a0.6369,0.6369,0,0,0,1.2736,0v-18.54l5.5718,12.2967a0.9094,0.9094,0,0,0,.8545.487,0.8611,0.8611,0,0,0,.8194-0.4846Z"/><path class="cls-1" d="M143.094,391.5969a1.1886,1.1886,0,0,1-1.1732-.8691l-1.4306-4.6426h-8.04l-1.463,4.6426a1.153,1.153,0,0,1-1.1408.8691,1.2117,1.2117,0,0,1-1.2685-1.1923,1.6307,1.6307,0,0,1,.0648-0.3874l6.3463-20.1821a1.4847,1.4847,0,0,1,1.465-.9032,1.5,1.5,0,0,1,1.4974.9032l6.3463,20.1821a1.6307,1.6307,0,0,1,.0648.3874A1.2117,1.2117,0,0,1,143.094,391.5969Zm-6.64-18.2793-3.2218,10.3168h6.476Z"/><path class="cls-1" d="M143.0934,392.1958a1.7893,1.7893,0,0,1-1.7441-1.2841l-1.3017-4.2269h-7.1568l-1.3321,4.2234a1.7477,1.7477,0,0,1-1.7137,1.2876,1.81,1.81,0,0,1-1.8659-1.7909,2.091,2.091,0,0,1,.0819-0.5338l6.3561-20.2166a2.06,2.06,0,0,1,2.0368-1.3216,2.0817,2.0817,0,0,1,2.0649,1.3087l6.3491,20.1956a2.25,2.25,0,0,1,.0936.5677A1.8119,1.8119,0,0,1,143.0934,392.1958Zm-11.0828-6.71h8.922l1.5615,5.065a0.5891,0.5891,0,0,0,.5993.446,0.6119,0.6119,0,0,0,.67-0.5923,1.2425,1.2425,0,0,0-.0468-0.2376l-6.335-20.1522a1.0957,1.0957,0,0,0-1.8261.0129l-6.3421,20.17a1.17,1.17,0,0,0-.0351.2072,0.6112,0.6112,0,0,0,.6672.5923,0.5623,0.5623,0,0,0,.5712-0.453Zm8.5146-1.2525H132.418l4.0337-12.9182Zm-6.4778-1.1986h4.8437l-2.4348-7.7163Z"/><path class="cls-1" d="M175.3241,391.5969a1.5886,1.5886,0,0,1-1.692-1.0959l-7.0961-15.8947v15.7663a1.2361,1.2361,0,0,1-2.4721,0V370.19a1.2966,1.2966,0,0,1,1.463-1.2585,1.5659,1.5659,0,0,1,1.6616,1.0317l7.0616,15.959V370.1583a1.2158,1.2158,0,0,1,1.27-1.2264,1.1642,1.1642,0,0,1,1.2036,1.2264v19.9894A1.307,1.307,0,0,1,175.3241,391.5969Z"/><path class="cls-1" d="M175.3234,392.1958a2.1764,2.1764,0,0,1-2.2381-1.4515l-5.9488-13.3256v12.9533a1.8364,1.8364,0,0,1-3.6709,0V370.1906a1.8817,1.8817,0,0,1,2.06-1.8577,2.1448,2.1448,0,0,1,2.2077,1.3848l5.9183,13.37v-12.93a1.8361,1.8361,0,0,1,3.6709,0v19.99A1.8967,1.8967,0,0,1,175.3234,392.1958Zm-9.3855-20.4027,8.243,18.4631a1.0069,1.0069,0,0,0,1.1425.741,0.725,0.725,0,0,0,.8007-0.85v-19.99a0.5687,0.5687,0,0,0-.604-0.6262,0.6219,0.6219,0,0,0-.67.6262v18.6l-8.21-18.5521a0.9839,0.9839,0,0,0-1.1144-.6742,0.7356,0.7356,0,0,0-.8615.659v20.1815a0.6369,0.6369,0,0,0,1.2736,0v-18.579Z"/><path class="cls-1" d="M200.2475,391.5969a1.1886,1.1886,0,0,1-1.1732-.8691l-1.4306-4.6426h-8.04l-1.463,4.6426a1.153,1.153,0,0,1-1.1408.8691,1.2117,1.2117,0,0,1-1.2685-1.1923,1.6307,1.6307,0,0,1,.0648-0.3874l6.3463-20.1821a1.4847,1.4847,0,0,1,1.465-.9032,1.5,1.5,0,0,1,1.4974.9032l6.3463,20.1821a1.6307,1.6307,0,0,1,.0648.3874A1.2117,1.2117,0,0,1,200.2475,391.5969Zm-6.64-18.2793-3.2218,10.3168h6.476Z"/><path class="cls-1" d="M200.2468,392.1958a1.7893,1.7893,0,0,1-1.7441-1.2841l-1.3017-4.2269h-7.1568l-1.3321,4.2234a1.7477,1.7477,0,0,1-1.7137,1.2876,1.81,1.81,0,0,1-1.8659-1.7909,2.1,2.1,0,0,1,.0726-0.4963l6.3655-20.2541a2.06,2.06,0,0,1,2.0368-1.3216,2.0817,2.0817,0,0,1,2.0649,1.3087l6.3491,20.1956a2.25,2.25,0,0,1,.0936.5677A1.8119,1.8119,0,0,1,200.2468,392.1958Zm-11.0828-6.71h8.922l1.5615,5.065a0.5891,0.5891,0,0,0,.5993.446,0.6119,0.6119,0,0,0,.67-0.5923,1.2426,1.2426,0,0,0-.0468-0.2376l-6.335-20.1522a1.0957,1.0957,0,0,0-1.8261.0129l-6.3421,20.17a1.4175,1.4175,0,0,0-.0351.2072,0.6112,0.6112,0,0,0,.6672.5923,0.5623,0.5623,0,0,0,.5712-0.453Zm8.5146-1.2525h-8.1072l4.0337-12.9182Zm-6.4778-1.1986h4.8437l-2.4348-7.7163Z"/><path class="cls-1" d="M216.3018,391.5969h-0.3242a6.1516,6.1516,0,0,1-6.1842-6.1259V375.0257a6.1258,6.1258,0,0,1,6.1842-6.0938h0.3242a6.1329,6.1329,0,0,1,6.1194,5.2568v0.1927a1.1554,1.1554,0,0,1-1.2036,1.1923,1.2642,1.2642,0,0,1-1.2381-1.0638,3.8125,3.8125,0,0,0-3.6777-3.1272h-0.3242a3.6861,3.6861,0,0,0-3.7122,3.643V385.471a3.6942,3.6942,0,0,0,3.7122,3.6771h0.3242a3.8125,3.8125,0,0,0,3.6777-3.1272,1.2572,1.2572,0,0,1,1.2381-1.0638,1.1542,1.1542,0,0,1,1.2036,1.1923v0.2248A6.21,6.21,0,0,1,216.3018,391.5969Z"/><path class="cls-1" d="M216.3021,392.1958h-0.3254a6.7618,6.7618,0,0,1-6.7822-6.7248V375.0262a6.7463,6.7463,0,0,1,6.7822-6.6932h0.3254a6.696,6.696,0,0,1,6.712,5.772l0.007,0.2763a1.7578,1.7578,0,0,1-1.8027,1.7921,1.857,1.857,0,0,1-1.8214-1.5287,3.2043,3.2043,0,0,0-3.0949-2.663h-0.3254a3.0819,3.0819,0,0,0-3.1113,3.0446V385.471a3.0974,3.0974,0,0,0,3.1113,3.0774h0.3254a3.1952,3.1952,0,0,0,3.09-2.6478,1.8514,1.8514,0,0,1,1.8261-1.5428,1.7578,1.7578,0,0,1,1.8027,1.7921v0.2247A6.8436,6.8436,0,0,1,216.3021,392.1958Zm-0.3254-22.6642a5.5462,5.5462,0,0,0-5.5835,5.4946V385.471a5.5616,5.5616,0,0,0,5.5835,5.5262h0.3254a5.6268,5.6268,0,0,0,5.5274-4.715l-0.007-.1323a0.5649,0.5649,0,0,0-.604-0.5935,0.6557,0.6557,0,0,0-.6532.5935,4.38,4.38,0,0,1-4.2632,3.5971h-0.3254a4.2984,4.2984,0,0,1-4.31-4.276V375.0262a4.2819,4.2819,0,0,1,4.31-4.2433h0.3254a4.3849,4.3849,0,0,1,4.2655,3.6065,0.667,0.667,0,0,0,.6508.5853,0.5649,0.5649,0,0,0,.604-0.5935v-0.192a5.5,5.5,0,0,0-5.52-4.6576h-0.3254Z"/><path class="cls-1" d="M233.0126,391.5969a1.1882,1.1882,0,0,1-1.2381-1.2244V370.1583a1.2371,1.2371,0,0,1,2.4741,0v20.2142A1.1877,1.1877,0,0,1,233.0126,391.5969Z"/><path class="cls-1" d="M233.0129,392.1958a1.7928,1.7928,0,0,1-1.8378-1.8237V370.1578a1.8376,1.8376,0,0,1,3.6732,0v20.2143A1.7923,1.7923,0,0,1,233.0129,392.1958Zm0-22.6642a0.6062,0.6062,0,0,0-.6391.6262v20.2143a0.6381,0.6381,0,0,0,1.2759,0V370.1578A0.6046,0.6046,0,0,0,233.0129,369.5316Z"/><path class="cls-1" d="M250.8094,391.5969h-0.3242a6.1516,6.1516,0,0,1-6.1842-6.1259V375.0257a6.1258,6.1258,0,0,1,6.1842-6.0938h0.3242a6.1184,6.1184,0,0,1,6.1518,6.0938V385.471A6.1238,6.1238,0,0,1,250.8094,391.5969Zm3.6777-16.539a3.6631,3.6631,0,0,0-3.6777-3.6751h-0.3242a3.6861,3.6861,0,0,0-3.7122,3.643V385.471a3.6942,3.6942,0,0,0,3.7122,3.6771h0.3242a3.6648,3.6648,0,0,0,3.6777-3.6771V375.0578Z"/><path class="cls-1" d="M250.81,392.1958h-0.3254a6.7618,6.7618,0,0,1-6.7822-6.7248V375.0262a6.7463,6.7463,0,0,1,6.7822-6.6932H250.81a6.7286,6.7286,0,0,1,6.7494,6.6932V385.471A6.7442,6.7442,0,0,1,250.81,392.1958Zm-0.3254-22.6642a5.5462,5.5462,0,0,0-5.5835,5.4946V385.471a5.5616,5.5616,0,0,0,5.5835,5.5262H250.81a5.5455,5.5455,0,0,0,5.5508-5.5262V375.0262a5.53,5.53,0,0,0-5.5508-5.4946h-0.3254ZM250.81,389.747h-0.3254a4.2984,4.2984,0,0,1-4.31-4.276V375.0262a4.2819,4.2819,0,0,1,4.31-4.2433H250.81a4.2813,4.2813,0,0,1,4.2772,4.2749V385.471A4.2823,4.2823,0,0,1,250.81,389.747Zm-0.3254-17.7655a3.0819,3.0819,0,0,0-3.1113,3.0446V385.471a3.0974,3.0974,0,0,0,3.1113,3.0774H250.81a3.0813,3.0813,0,0,0,3.0786-3.0774V375.0578a3.0811,3.0811,0,0,0-3.0786-3.0762h-0.3254Z"/><path class="cls-1" d="M278.1319,391.5969a1.5886,1.5886,0,0,1-1.692-1.0959l-7.0961-15.8947v15.7663a1.2361,1.2361,0,0,1-2.4721,0V370.19a1.2966,1.2966,0,0,1,1.463-1.2585,1.5659,1.5659,0,0,1,1.6616,1.0317l7.0616,15.959V370.1583a1.2158,1.2158,0,0,1,1.27-1.2264,1.1642,1.1642,0,0,1,1.2036,1.2264v19.9894A1.307,1.307,0,0,1,278.1319,391.5969Z"/><path class="cls-1" d="M278.1331,392.1958a2.1789,2.1789,0,0,1-2.24-1.4515l-5.9488-13.3256v12.9533a1.8364,1.8364,0,0,1-3.6709,0V370.1906a1.8825,1.8825,0,0,1,2.0625-1.8577,2.1437,2.1437,0,0,1,2.2053,1.3848l5.9183,13.37v-12.93c0.0023-2.3575,3.6755-2.4078,3.6732,0v19.99A1.8967,1.8967,0,0,1,278.1331,392.1958Zm-9.3878-20.4027,8.243,18.4631a1.0081,1.0081,0,0,0,1.1448.741,0.725,0.725,0,0,0,.8007-0.85v-19.99a0.57,0.57,0,0,0-.6063-0.6262,0.6219,0.6219,0,0,0-.67.6262v18.6l-8.21-18.5521a0.9826,0.9826,0,0,0-1.112-.6742,0.7377,0.7377,0,0,0-.8639.659v20.1815a0.6369,0.6369,0,0,0,1.2736,0v-18.579Z"/><path class="cls-1" d="M303.0553,391.5969a1.1848,1.1848,0,0,1-1.1712-.8691l-1.4326-4.6426h-8.04l-1.465,4.6426a1.1493,1.1493,0,0,1-1.1388.8691,1.2117,1.2117,0,0,1-1.2685-1.1923,1.6307,1.6307,0,0,1,.0648-0.3874l6.3463-20.1821a1.6661,1.6661,0,0,1,2.9624,0l6.3463,20.1821a1.6307,1.6307,0,0,1,.0648.3874A1.2117,1.2117,0,0,1,303.0553,391.5969Zm-6.64-18.2793-3.2218,10.3168h6.476Z"/><path class="cls-1" d="M303.0541,392.1958a1.7838,1.7838,0,0,1-1.7418-1.2864l-1.304-4.2245h-7.1568l-1.3344,4.2234a1.74,1.74,0,0,1-1.709,1.2876,1.8119,1.8119,0,0,1-1.8682-1.7909,2.2143,2.2143,0,0,1,.0819-0.53l6.3561-20.22a2.06,2.06,0,0,1,2.0368-1.3216,2.0809,2.0809,0,0,1,2.0672,1.311l6.3491,20.1932a2.3169,2.3169,0,0,1,.0913.5677A1.8119,1.8119,0,0,1,303.0541,392.1958Zm-11.0828-6.71h8.922l1.5639,5.065a0.5851,0.5851,0,0,0,.597.446,0.6119,0.6119,0,0,0,.67-0.5923,1.3592,1.3592,0,0,0-.04-0.2212l-6.3421-20.1686a1.0771,1.0771,0,0,0-1.8261.0129l-6.34,20.17a1.1957,1.1957,0,0,0-.0375.2072,0.6119,0.6119,0,0,0,.67.5923,0.5576,0.5576,0,0,0,.5665-0.4507Zm8.5146-1.2525h-8.1072l4.0337-12.9182Zm-6.4778-1.1986h4.8437l-2.4348-7.7163Z"/><path class="cls-1" d="M323.4519,391.4042h-8.8853a1.2737,1.2737,0,0,1-1.236-1.2244V370.1583a1.2361,1.2361,0,0,1,2.4721,0v18.7951h7.6492A1.2254,1.2254,0,1,1,323.4519,391.4042Z"/><path class="cls-1" d="M323.4522,392.0039h-8.8845a1.8769,1.8769,0,0,1-1.8354-1.8237V370.1578a1.8363,1.8363,0,0,1,3.6709,0v18.1962h7.0491A1.8249,1.8249,0,1,1,323.4522,392.0039Zm-8.8845-22.4723a0.6046,0.6046,0,0,0-.6368.6262V390.18a0.6748,0.6748,0,0,0,.6368.6251h8.8845a0.6263,0.6263,0,1,0,0-1.2525h-8.2477V370.1578A0.6046,0.6046,0,0,0,314.5677,369.5316Z"/><path class="cls-1" d="M13.5352,426.7H8.2628a1.2737,1.2737,0,0,1-1.236-1.2244V405.647a1.2737,1.2737,0,0,1,1.236-1.2244h5.2724a6.1171,6.1171,0,0,1,6.1518,6.0938v10.0579A6.1238,6.1238,0,0,1,13.5352,426.7Zm3.71-16.1517a3.6631,3.6631,0,0,0-3.6777-3.6751H9.4988v17.376h4.0364a3.6908,3.6908,0,0,0,3.71-3.6751V410.5485Z"/><path class="cls-1" d="M13.5343,427.3H8.2621a1.8769,1.8769,0,0,1-1.8354-1.8237V405.6467a1.8769,1.8769,0,0,1,1.8354-1.8237h5.2722a6.7306,6.7306,0,0,1,6.7517,6.6932v10.0586A6.7462,6.7462,0,0,1,13.5343,427.3Zm-5.2722-22.278a0.6739,0.6739,0,0,0-.6368.6251v19.8292a0.6739,0.6739,0,0,0,.6368.6251h5.2722a5.546,5.546,0,0,0,5.5531-5.5262V410.5162a5.53,5.53,0,0,0-5.5531-5.4946H8.2621Zm5.2722,19.8268H8.8989V406.2741H13.567a4.2813,4.2813,0,0,1,4.2772,4.2749v10.0258A4.2971,4.2971,0,0,1,13.5343,424.8484ZM10.0975,423.65h3.4367a3.0962,3.0962,0,0,0,3.1113-3.075V410.5489a3.0811,3.0811,0,0,0-3.0786-3.0762h-3.47V423.65Z"/><path class="cls-1" d="M40.9954,426.7H30.8073a1.2737,1.2737,0,0,1-1.236-1.2244V405.647a1.2737,1.2737,0,0,1,1.236-1.2244H40.9954a1.2254,1.2254,0,1,1,0,2.4507H32.0433v7.0913H38.26a1.2254,1.2254,0,1,1,0,2.4507H32.0433v7.834h8.9521A1.2254,1.2254,0,1,1,40.9954,426.7Z"/><path class="cls-1" d="M40.9954,427.3H30.8069a1.8769,1.8769,0,0,1-1.8354-1.8237V405.6467a1.8769,1.8769,0,0,1,1.8354-1.8237H40.9954a1.8249,1.8249,0,1,1,0,3.65H32.6424v5.8926H38.261a1.8249,1.8249,0,1,1,0,3.65H32.6424V423.65h8.3531A1.8249,1.8249,0,1,1,40.9954,427.3Zm-10.1885-22.278a0.6739,0.6739,0,0,0-.6368.6251v19.8292a0.6739,0.6739,0,0,0,.6368.6251H40.9954a0.6263,0.6263,0,1,0,0-1.2525H31.4437v-9.032H38.261a0.6263,0.6263,0,1,0,0-1.2525H31.4437v-8.29h9.5517a0.6263,0.6263,0,1,0,0-1.2525H30.8069Z"/><path class="cls-1" d="M63.4953,426.8929a1.1882,1.1882,0,0,1-1.2381-1.2244V405.4544a1.2371,1.2371,0,0,1,2.4741,0v20.2142A1.1877,1.1877,0,0,1,63.4953,426.8929Z"/><path class="cls-1" d="M63.4958,427.4927a1.7928,1.7928,0,0,1-1.8378-1.8237V405.4547a1.8376,1.8376,0,0,1,3.6732,0V425.669A1.7923,1.7923,0,0,1,63.4958,427.4927Zm0-22.6654a0.6066,0.6066,0,0,0-.6391.6274V425.669a0.6381,0.6381,0,0,0,1.2759,0V405.4547A0.6049,0.6049,0,0,0,63.4958,404.8273Z"/><path class="cls-1" d="M86.4025,426.8929a1.5886,1.5886,0,0,1-1.692-1.0959l-7.0961-15.8947v15.7663a1.2361,1.2361,0,0,1-2.4721,0V405.4865a1.2966,1.2966,0,0,1,1.463-1.2585A1.5659,1.5659,0,0,1,78.267,405.26l7.0616,15.959V405.4544a1.2158,1.2158,0,0,1,1.27-1.2264,1.1642,1.1642,0,0,1,1.2036,1.2264v19.9894A1.307,1.307,0,0,1,86.4025,426.8929Z"/><path class="cls-1" d="M86.4035,427.4927a2.1786,2.1786,0,0,1-2.24-1.4527l-5.9488-13.3244V425.669a1.8364,1.8364,0,0,1-3.6709,0V405.4863a1.8825,1.8825,0,0,1,2.0625-1.8577,2.1437,2.1437,0,0,1,2.2053,1.3848l5.9183,13.37V405.4547a1.8373,1.8373,0,0,1,3.6732,0v19.99A1.8967,1.8967,0,0,1,86.4035,427.4927ZM77.0157,407.09l8.243,18.462a1.0079,1.0079,0,0,0,1.1448.7421,0.725,0.725,0,0,0,.8007-0.85v-19.99a0.5691,0.5691,0,0,0-.604-0.6274,0.6228,0.6228,0,0,0-.6719.6274v18.5989l-8.21-18.5521a0.9826,0.9826,0,0,0-1.112-.6742,0.7377,0.7377,0,0,0-.8639.659V425.669a0.6369,0.6369,0,0,0,1.2736,0V407.09Z"/><path class="cls-1" d="M109.4961,406.8734H100.544v7.0913h6.2167a1.2254,1.2254,0,1,1,0,2.4507H100.544v9.253a1.2361,1.2361,0,0,1-2.4721,0V405.647a1.2737,1.2737,0,0,1,1.236-1.2244h10.1882A1.2254,1.2254,0,1,1,109.4961,406.8734Z"/><path class="cls-1" d="M99.3077,427.4927a1.7923,1.7923,0,0,1-1.8354-1.8237V405.6467a1.8769,1.8769,0,0,1,1.8354-1.8237h10.1885a1.8249,1.8249,0,1,1,0,3.65h-8.3531v5.8926h5.6187a1.8249,1.8249,0,1,1,0,3.65h-5.6187v8.6539A1.7923,1.7923,0,0,1,99.3077,427.4927Zm0-22.4711a0.6739,0.6739,0,0,0-.6368.6251V425.669a0.6369,0.6369,0,0,0,1.2736,0v-9.8525h6.8173a0.6263,0.6263,0,1,0,0-1.2525H99.9445v-8.29h9.5517a0.6263,0.6263,0,1,0,0-1.2525H99.3077Z"/><path class="cls-1" d="M124.8878,426.8929h-0.3242a6.1512,6.1512,0,0,1-6.1842-6.1239V410.3217a6.1258,6.1258,0,0,1,6.1842-6.0938h0.3242a6.1184,6.1184,0,0,1,6.1518,6.0938V420.769A6.1234,6.1234,0,0,1,124.8878,426.8929Zm3.6777-16.539a3.6631,3.6631,0,0,0-3.6777-3.6751h-0.3242a3.6861,3.6861,0,0,0-3.7122,3.643V420.769a3.6938,3.6938,0,0,0,3.7122,3.6751h0.3242a3.6643,3.6643,0,0,0,3.6777-3.6751V410.3538Z"/><path class="cls-1" d="M124.889,427.4927h-0.3254a6.7621,6.7621,0,0,1-6.7845-6.7237V410.3219a6.7469,6.7469,0,0,1,6.7845-6.6932h0.3254a6.7286,6.7286,0,0,1,6.7494,6.6932V420.769A6.7439,6.7439,0,0,1,124.889,427.4927Zm-0.3254-22.6654a5.5467,5.5467,0,0,0-5.5859,5.4946V420.769a5.5612,5.5612,0,0,0,5.5859,5.525h0.3254a5.5445,5.5445,0,0,0,5.5508-5.525V410.3219a5.53,5.53,0,0,0-5.5508-5.4946h-0.3254Zm0.3254,20.2166h-0.3254a4.2979,4.2979,0,0,1-4.3123-4.2749V410.3219a4.2822,4.2822,0,0,1,4.3123-4.2421h0.3254a4.279,4.279,0,0,1,4.2749,4.2737V420.769A4.2793,4.2793,0,0,1,124.889,425.0439Zm-0.3254-17.7655a3.0829,3.0829,0,0,0-3.1137,3.0434V420.769a3.0992,3.0992,0,0,0,3.1137,3.0762h0.3254a3.0791,3.0791,0,0,0,3.0762-3.0762V410.3535a3.0781,3.0781,0,0,0-3.0762-3.075h-0.3254Z"/><path class="cls-1" d="M149.3816,416.7708l4.0364,8.35a1.226,1.226,0,0,1-1.1732,1.7723,1.1856,1.1856,0,0,1-1.0739-.7085l-4.4254-9.2209h-3.3211v8.7051a1.2361,1.2361,0,0,1-2.4721,0V405.647a1.2737,1.2737,0,0,1,1.236-1.2244h5.4669a6.1516,6.1516,0,0,1,6.1842,6.1259v0.289A6.0843,6.0843,0,0,1,149.3816,416.7708Zm1.9858-6.2222a3.6925,3.6925,0,0,0-3.7122-3.6751h-4.2309v7.6393h4.3626a3.5816,3.5816,0,0,0,3.58-3.6751v-0.289Z"/><path class="cls-1" d="M152.2448,427.4927a1.7767,1.7767,0,0,1-1.6083-1.0371l-4.2678-8.8927h-2.3458v8.1061a1.8364,1.8364,0,0,1-3.6709,0V405.6467a1.8769,1.8769,0,0,1,1.8354-1.8237h5.4688a6.7628,6.7628,0,0,1,6.7822,6.726v0.2891a6.6849,6.6849,0,0,1-4.221,6.2824l3.7387,7.7385a1.7913,1.7913,0,0,1,.192.81A1.8247,1.8247,0,0,1,152.2448,427.4927Zm-9.4206-11.1284h4.2983l4.5886,9.5611a0.59,0.59,0,0,0,.5338.3687,0.6329,0.6329,0,0,0,.7047-0.6251,0.6233,0.6233,0,0,0-.0656-0.2774l-4.3521-9.0039,0.6883-.1943a5.4961,5.4961,0,0,0,4.02-5.3553v-0.2891a5.5619,5.5619,0,0,0-5.5835-5.5274h-5.4688a0.6824,0.6824,0,0,0-.6368.6251V425.669a0.6369,0.6369,0,0,0,1.2736,0v-9.3047Zm4.9631-1.2525h-4.9631v-8.8377h4.832a4.2974,4.2974,0,0,1,4.31,4.2749v0.2891A4.1822,4.1822,0,0,1,147.7873,415.1118Zm-3.7645-1.1986h3.7645a2.9963,2.9963,0,0,0,2.98-3.075v-0.2891a3.0972,3.0972,0,0,0-3.1113-3.0762h-3.6334v6.44Z"/><path class="cls-1" d="M178.394,426.8929a1.1893,1.1893,0,0,1-1.2381-1.2244V409.9022l-4.2957,9.7689a1.4423,1.4423,0,0,1-1.3657.839,1.51,1.51,0,0,1-1.4-.839l-4.4274-9.7689v15.7663a1.2361,1.2361,0,0,1-2.4721,0V405.647a1.239,1.239,0,0,1,1.463-1.4191h0.0993a1.4611,1.4611,0,0,1,1.463.9353l5.2076,11.5432,5.1751-11.5432a1.4816,1.4816,0,0,1,1.4974-.9353h0.0973a1.2288,1.2288,0,0,1,1.4326,1.4191v20.0215A1.1877,1.1877,0,0,1,178.394,426.8929Z"/><path class="cls-1" d="M178.3949,427.4927a1.7928,1.7928,0,0,1-1.8378-1.8237V412.7543l-3.1488,7.1579a2.0246,2.0246,0,0,1-1.915,1.1975,2.1064,2.1064,0,0,1-1.9408-1.1823l-3.2869-7.25v12.992a1.8364,1.8364,0,0,1-3.6709,0V405.6467a1.8315,1.8315,0,0,1,2.0625-2.018,2.1017,2.1017,0,0,1,2.114,1.2958l4.6541,10.3208,4.6284-10.3266a2.0793,2.0793,0,0,1,2.0461-1.29,1.8476,1.8476,0,0,1,2.13,2.018V425.669A1.7923,1.7923,0,0,1,178.3949,427.4927Zm-0.6391-20.4414V425.669a0.6381,0.6381,0,0,0,1.2759,0V405.6467c0-.6145-0.1194-0.8194-0.8334-0.8194a0.9414,0.9414,0,0,0-1.0465.5747L171.43,418.1669,165.6757,405.41a0.8817,0.8817,0,0,0-.9177-0.5829c-0.84,0-.9645.2048-0.9645,0.8194V425.669a0.6369,0.6369,0,0,0,1.2736,0v-18.54l5.5718,12.2955a0.9094,0.9094,0,0,0,.8545.4869,0.863,0.863,0,0,0,.8194-0.4846Z"/><path class="cls-1" d="M203.1714,426.8929A1.1848,1.1848,0,0,1,202,426.0238l-1.4326-4.6426h-8.04l-1.465,4.6426a1.1493,1.1493,0,0,1-1.1388.8691,1.2117,1.2117,0,0,1-1.2685-1.1923,1.6307,1.6307,0,0,1,.0648-0.3874l6.3463-20.1821a1.6661,1.6661,0,0,1,2.9624,0l6.3463,20.1821a1.6307,1.6307,0,0,1,.0648.3874A1.2117,1.2117,0,0,1,203.1714,426.8929Zm-6.64-18.2793L193.3095,418.93h6.476Z"/><path class="cls-1" d="M203.1709,427.4927a1.7848,1.7848,0,0,1-1.7418-1.2876l-1.304-4.2245h-7.1568l-1.3344,4.2234a1.7421,1.7421,0,0,1-1.7113,1.2888,1.8109,1.8109,0,0,1-1.8659-1.7921,2.1154,2.1154,0,0,1,.0819-0.5326l6.3561-20.2166a2.0609,2.0609,0,0,1,2.0368-1.3227,2.0819,2.0819,0,0,1,2.0649,1.311l6.3491,20.1932a2.1649,2.1649,0,0,1,.0936.5677A1.8129,1.8129,0,0,1,203.1709,427.4927Zm-11.0828-6.7108h8.922l1.5639,5.065a0.5866,0.5866,0,0,0,.597.4472,0.6121,0.6121,0,0,0,.67-0.5935,1.3416,1.3416,0,0,0-.0445-0.2318l-6.3374-20.1569a1.0949,1.0949,0,0,0-1.8261.0117l-6.3421,20.17a1.2494,1.2494,0,0,0-.0351.2072,0.6113,0.6113,0,0,0,.6672.5935,0.56,0.56,0,0,0,.5689-0.4518Zm8.5146-1.2525h-8.1072l4.0337-12.9171Zm-6.4778-1.1986h4.8437l-2.4348-7.7151Z"/><path class="cls-1" d="M220.0078,426.8287v0.7748a2.5734,2.5734,0,0,1,1.8541,2.4829v0.3211a2.6059,2.6059,0,0,1-2.6362,2.5792h-0.3242a2.6207,2.6207,0,0,1-2.5389-1.8687c0-.0984-0.0324-0.1947-0.0324-0.291a0.9154,0.9154,0,0,1,.9767-0.8711,0.85,0.85,0,0,1,.845.6463,0.7725,0.7725,0,0,0,.75.548h0.3242a0.7625,0.7625,0,0,0,.7821-0.7427v-0.3211a0.79,0.79,0,0,0-.7821-0.7748h-0.1621a0.9343,0.9343,0,0,1-.9118-0.9353v-1.5154a6.1774,6.1774,0,0,1-5.4345-6.0917V410.3217a6.1258,6.1258,0,0,1,6.1842-6.0938h0.3242a6.1329,6.1329,0,0,1,6.1194,5.2568v0.1927a1.1542,1.1542,0,0,1-1.2036,1.1923,1.2642,1.2642,0,0,1-1.2381-1.0638,3.8125,3.8125,0,0,0-3.6777-3.1272h-0.3242a3.6861,3.6861,0,0,0-3.7122,3.643V420.769a3.6938,3.6938,0,0,0,3.7122,3.6751h0.3242a3.8125,3.8125,0,0,0,3.6777-3.1272,1.2592,1.2592,0,0,1,1.2381-1.0658,1.1559,1.1559,0,0,1,1.2036,1.1943V421.67A6.1191,6.1191,0,0,1,220.0078,426.8287Z"/><path class="cls-1" d="M219.2262,433.5854h-0.3254a3.2118,3.2118,0,0,1-3.1137-2.2978l-0.0234-.17a1.7868,1.7868,0,0,1-.0328-0.2915,1.5134,1.5134,0,0,1,1.5756-1.47,1.4507,1.4507,0,0,1,1.4211,1.08,0.172,0.172,0,0,0,.1732.1147h0.3254a0.1692,0.1692,0,0,0,.1826-0.144v-0.3207a0.1918,0.1918,0,0,0-.1826-0.1756h-0.1615a1.5255,1.5255,0,0,1-1.5124-1.5346v-1.0078a6.7763,6.7763,0,0,1-5.4337-6.6V410.3219a6.7463,6.7463,0,0,1,6.7822-6.6932h0.3254a6.696,6.696,0,0,1,6.712,5.772l0.007,0.2763a1.7578,1.7578,0,0,1-1.8027,1.7921,1.857,1.857,0,0,1-1.8214-1.5287,3.2032,3.2032,0,0,0-3.0949-2.6618h-0.3254a3.0809,3.0809,0,0,0-3.1113,3.0434V420.769a3.0972,3.0972,0,0,0,3.1113,3.0762h0.3254a3.1962,3.1962,0,0,0,3.09-2.649,1.8525,1.8525,0,0,1,1.8261-1.544,1.7588,1.7588,0,0,1,1.8027,1.7933V421.67a6.7158,6.7158,0,0,1-5.1294,5.6257,3.163,3.163,0,0,1,1.6458,2.7906v0.3207A3.2108,3.2108,0,0,1,219.2262,433.5854Zm-2.2709-2.5787a2.02,2.02,0,0,0,1.9455,1.38h0.3254a2.0109,2.0109,0,0,0,2.0368-1.9794v-0.3207a1.98,1.98,0,0,0-1.4257-1.908l-0.4284-.1288v-1.7535l0.5291-.062a5.5033,5.5033,0,0,0,4.8157-4.6494l-0.007-.1393a0.566,0.566,0,0,0-.604-0.5946,0.6585,0.6585,0,0,0-.6532.5946,4.381,4.381,0,0,1-4.2632,3.5983h-0.3254a4.2974,4.2974,0,0,1-4.31-4.2749V410.3219a4.2817,4.2817,0,0,1,4.31-4.2421h0.3254a4.3838,4.3838,0,0,1,4.2655,3.6053,0.667,0.667,0,0,0,.6508.5853,0.5649,0.5649,0,0,0,.604-0.5935v-0.192a5.5,5.5,0,0,0-5.52-4.6576h-0.3254a5.5462,5.5462,0,0,0-5.5835,5.4946V420.769a5.58,5.58,0,0,0,4.9093,5.4969l0.5244,0.0656v2.045a0.3388,0.3388,0,0,0,.3137.3359h0.1615a1.3962,1.3962,0,0,1,1.3813,1.3742v0.3207a1.3647,1.3647,0,0,1-1.3813,1.3426h-0.3254a1.3729,1.3729,0,0,1-1.3227-.9727,0.2606,0.2606,0,0,0-.2716-0.2224,0.3466,0.3466,0,0,0-.3769.2716C216.9412,430.8978,216.9506,430.9552,216.9553,431.0067Z"/><path class="cls-1" d="M247.5755,426.8929a1.1848,1.1848,0,0,1-1.1712-.8691l-1.4326-4.6426h-8.04l-1.465,4.6426a1.1493,1.1493,0,0,1-1.1388.8691,1.2117,1.2117,0,0,1-1.2685-1.1923,1.6307,1.6307,0,0,1,.0648-0.3874l6.3463-20.1821a1.6661,1.6661,0,0,1,2.9624,0l6.3463,20.1821a1.6307,1.6307,0,0,1,.0648.3874A1.2117,1.2117,0,0,1,247.5755,426.8929ZM246.37,400.2317a4.3,4.3,0,0,1-3.4487,1.1923c-1.9209,0-3.2542-1-4.2633-1a1.8636,1.8636,0,0,0-1.3353.548,1.319,1.319,0,0,1-.9443.4195,1.4766,1.4766,0,0,1-1.3981-1.4191,1.2851,1.2851,0,0,1,.3566-0.837,3.7557,3.7557,0,0,1,3.1245-1.3548c1.9858,0,3.3535,1,4.5247,1a2.9659,2.9659,0,0,0,1.7244-.7085,1.7452,1.7452,0,0,1,.847-0.2268,1.3548,1.3548,0,0,1,1.3333,1.3227A1.3985,1.3985,0,0,1,246.37,400.2317Zm-5.4345,8.3819L237.7136,418.93h6.476Z"/><path class="cls-1" d="M247.5746,427.4927a1.7848,1.7848,0,0,1-1.7418-1.2876l-1.304-4.2245h-7.1568l-1.3344,4.2234a1.7394,1.7394,0,0,1-1.709,1.2888,1.8122,1.8122,0,0,1-1.8682-1.7921,2.0916,2.0916,0,0,1,.07-0.4893l6.3678-20.26a2.2563,2.2563,0,0,1,4.104-.0094l6.3467,20.1909a2.1649,2.1649,0,0,1,.0936.5677A1.8122,1.8122,0,0,1,247.5746,427.4927Zm-11.0828-6.7108h8.922l1.5639,5.065a0.5866,0.5866,0,0,0,.597.4472,0.6121,0.6121,0,0,0,.67-0.5935,1.3416,1.3416,0,0,0-.0445-0.2318l-6.3374-20.1569a1.0766,1.0766,0,0,0-1.8261.0117l-6.3421,20.17a1.292,1.292,0,0,0-.0351.2072,0.6121,0.6121,0,0,0,.67.5935,0.5575,0.5575,0,0,0,.5665-0.4518Zm8.5146-1.2525h-8.1072l4.0337-12.9171Zm-6.4778-1.1986h4.8437l-2.4348-7.7151Zm4.3919-16.307a8.3969,8.3969,0,0,1-3.006-.6555c-1.0605-.391-1.6973-0.4425-2.17.03a1.9231,1.9231,0,0,1-1.3672.5923,2.0879,2.0879,0,0,1-1.997-2.018,1.8635,1.8635,0,0,1,.508-1.2338,4.3811,4.3811,0,0,1,3.5725-1.558,9.0114,9.0114,0,0,1,3.0481.6309,5.0694,5.0694,0,0,0,1.4772.3687,2.02,2.02,0,0,0,1.2057-.48,2.3788,2.3788,0,0,1,.2247-0.15,2.3459,2.3459,0,0,1,1.14-.3055,1.9534,1.9534,0,0,1,1.9338,1.922,1.9818,1.9818,0,0,1-.7211,1.51l-0.0117.0094A4.8587,4.8587,0,0,1,242.92,402.0238Zm-4.2632-2.1983a4.9885,4.9885,0,0,1,1.6692.4179,7.32,7.32,0,0,0,2.5939.5818,3.7047,3.7047,0,0,0,3.0528-1.0441,0.788,0.788,0,0,0,.3184-0.6134,0.7577,0.7577,0,0,0-.7351-0.7234,1.1464,1.1464,0,0,0-.5548.151,3.35,3.35,0,0,1-2.0157.7843,5.9061,5.9061,0,0,1-1.8682-.4343,7.8832,7.8832,0,0,0-2.6572-.5654,3.1823,3.1823,0,0,0-2.6852,1.1659,0.6869,0.6869,0,0,0-.1967.4273,0.7951,0.7951,0,0,0,1.3227.5747A2.4482,2.4482,0,0,1,238.6573,399.8255Z"/><path class="cls-1" d="M263.63,426.8929h-0.3242a6.1512,6.1512,0,0,1-6.1842-6.1239V410.3217a6.1258,6.1258,0,0,1,6.1842-6.0938H263.63a6.1184,6.1184,0,0,1,6.1518,6.0938V420.769A6.1234,6.1234,0,0,1,263.63,426.8929Zm3.6777-16.539a3.6631,3.6631,0,0,0-3.6777-3.6751h-0.3242a3.6861,3.6861,0,0,0-3.7122,3.643V420.769a3.6938,3.6938,0,0,0,3.7122,3.6751H263.63a3.6643,3.6643,0,0,0,3.6777-3.6751V410.3538Z"/><path class="cls-1" d="M263.63,427.4927h-0.3254a6.7616,6.7616,0,0,1-6.7822-6.7237V410.3219a6.7463,6.7463,0,0,1,6.7822-6.6932H263.63a6.7306,6.7306,0,0,1,6.7517,6.6932V420.769A6.7459,6.7459,0,0,1,263.63,427.4927Zm-0.3254-22.6654a5.5462,5.5462,0,0,0-5.5835,5.4946V420.769a5.5606,5.5606,0,0,0,5.5835,5.525H263.63a5.545,5.545,0,0,0,5.5531-5.525V410.3219a5.53,5.53,0,0,0-5.5531-5.4946h-0.3254Zm0.3254,20.2166h-0.3254a4.2974,4.2974,0,0,1-4.31-4.2749V410.3219a4.2817,4.2817,0,0,1,4.31-4.2421H263.63a4.281,4.281,0,0,1,4.2772,4.2737V420.769A4.2813,4.2813,0,0,1,263.63,425.0439Zm-0.3254-17.7655a3.0809,3.0809,0,0,0-3.1113,3.0434V420.769a3.0972,3.0972,0,0,0,3.1113,3.0762H263.63a3.0811,3.0811,0,0,0,3.0786-3.0762V410.3535a3.08,3.08,0,0,0-3.0786-3.075h-0.3254Z"/><path class="cls-1" d="M296.9683,426.8929h-0.3242a6.1512,6.1512,0,0,1-6.1842-6.1239V410.3538a6.1324,6.1324,0,0,1,6.1842-6.1259h0.3242a6.1471,6.1471,0,0,1,6.1842,5.2568v0.1927a1.18,1.18,0,0,1-1.236,1.1923,1.2114,1.2114,0,0,1-1.2381-1.0317,3.6441,3.6441,0,0,0-3.71-3.1593h-0.3242a3.6861,3.6861,0,0,0-3.7122,3.643V420.769a3.6938,3.6938,0,0,0,3.7122,3.6751h0.3242a3.6921,3.6921,0,0,0,3.71-3.6751v-3.7735h-3.4163a1.2254,1.2254,0,1,1,0-2.4507h4.6544a1.2755,1.2755,0,0,1,1.236,1.2264v4.9978A6.1512,6.1512,0,0,1,296.9683,426.8929Z"/><path class="cls-1" d="M296.9673,427.4927h-0.3231a6.7621,6.7621,0,0,1-6.7845-6.7237V410.3535a6.7623,6.7623,0,0,1,6.7845-6.7248h0.3231a6.7319,6.7319,0,0,1,6.78,5.7732l0.0047,0.2751a1.7784,1.7784,0,0,1-1.8354,1.7921,1.8154,1.8154,0,0,1-1.8284-1.5217,3.0729,3.0729,0,0,0-3.1207-2.6689h-0.3231a3.0829,3.0829,0,0,0-3.1137,3.0434V420.769a3.0992,3.0992,0,0,0,3.1137,3.0762h0.3231a3.0972,3.0972,0,0,0,3.1113-3.0762v-3.1745h-2.8164a1.8244,1.8244,0,1,1,0-3.6486h4.6541a1.8771,1.8771,0,0,1,1.8354,1.8249v4.9983A6.7621,6.7621,0,0,1,296.9673,427.4927Zm-0.3231-22.6654a5.5622,5.5622,0,0,0-5.5859,5.5262V420.769a5.5612,5.5612,0,0,0,5.5859,5.525h0.3231a5.5612,5.5612,0,0,0,5.5859-5.525v-4.9983a0.675,0.675,0,0,0-.6368-0.6262h-4.6541a0.6258,0.6258,0,1,0,0,1.2513h4.015v4.3732a4.2974,4.2974,0,0,1-4.31,4.2749h-0.3231a4.2979,4.2979,0,0,1-4.3123-4.2749V410.3219a4.2822,4.2822,0,0,1,4.3123-4.2421h0.3231a4.2519,4.2519,0,0,1,4.2983,3.64,0.6229,0.6229,0,0,0,.6508.55,0.59,0.59,0,0,0,.6368-0.5935v-0.192a5.5336,5.5336,0,0,0-5.5859-4.6576h-0.3231Z"/><path class="cls-1" d="M324.3678,426.7H314.18a1.2737,1.2737,0,0,1-1.236-1.2244V405.647a1.2737,1.2737,0,0,1,1.236-1.2244h10.1882a1.2254,1.2254,0,1,1,0,2.4507h-8.9521v7.0913h6.2167a1.2254,1.2254,0,1,1,0,2.4507h-6.2167v7.834h8.9521A1.2254,1.2254,0,1,1,324.3678,426.7Z"/><path class="cls-1" d="M324.3676,427.3H314.1791a1.8769,1.8769,0,0,1-1.8354-1.8237V405.6467a1.8769,1.8769,0,0,1,1.8354-1.8237h10.1885a1.8249,1.8249,0,1,1,0,3.65h-8.3531v5.8926h5.6187a1.8249,1.8249,0,1,1,0,3.65h-5.6187V423.65h8.3531A1.8249,1.8249,0,1,1,324.3676,427.3Zm-10.1885-22.278a0.6739,0.6739,0,0,0-.6368.6251v19.8292a0.6739,0.6739,0,0,0,.6368.6251h10.1885a0.6263,0.6263,0,1,0,0-1.2525h-9.5517v-9.032h6.8173a0.6263,0.6263,0,1,0,0-1.2525h-6.8173v-8.29h9.5517a0.6263,0.6263,0,1,0,0-1.2525H314.1791Z"/><path class="cls-1" d="M340.2822,426.8929H339.958a6.1512,6.1512,0,0,1-6.1842-6.1239V410.3217a6.1258,6.1258,0,0,1,6.1842-6.0938h0.3242a6.1184,6.1184,0,0,1,6.1518,6.0938V420.769A6.1234,6.1234,0,0,1,340.2822,426.8929Zm3.6777-16.539a3.6631,3.6631,0,0,0-3.6777-3.6751H339.958a3.6861,3.6861,0,0,0-3.7122,3.643V420.769a3.6938,3.6938,0,0,0,3.7122,3.6751h0.3242a3.6643,3.6643,0,0,0,3.6777-3.6751V410.3538Z"/><path class="cls-1" d="M340.2824,427.4927H339.957a6.7616,6.7616,0,0,1-6.7822-6.7237V410.3219a6.7463,6.7463,0,0,1,6.7822-6.6932h0.3254a6.7306,6.7306,0,0,1,6.7517,6.6932V420.769A6.7459,6.7459,0,0,1,340.2824,427.4927Zm-0.3254-22.6654a5.5462,5.5462,0,0,0-5.5835,5.4946V420.769a5.5606,5.5606,0,0,0,5.5835,5.525h0.3254a5.545,5.545,0,0,0,5.5531-5.525V410.3219a5.53,5.53,0,0,0-5.5531-5.4946H339.957Zm0.3254,20.2166H339.957a4.2974,4.2974,0,0,1-4.31-4.2749V410.3219a4.2817,4.2817,0,0,1,4.31-4.2421h0.3254a4.281,4.281,0,0,1,4.2772,4.2737V420.769A4.2813,4.2813,0,0,1,340.2824,425.0439Zm-0.3254-17.7655a3.0809,3.0809,0,0,0-3.1113,3.0434V420.769a3.0972,3.0972,0,0,0,3.1113,3.0762h0.3254a3.0811,3.0811,0,0,0,3.0786-3.0762V410.3535a3.08,3.08,0,0,0-3.0786-3.075H339.957Z"/><path class="cls-1" d="M362.4721,426.8929h-0.3242a6.1512,6.1512,0,0,1-6.1842-6.1239V410.3538a6.1324,6.1324,0,0,1,6.1842-6.1259h0.3242a6.1471,6.1471,0,0,1,6.1842,5.2568v0.1927a1.18,1.18,0,0,1-1.236,1.1923,1.2114,1.2114,0,0,1-1.2381-1.0317,3.6441,3.6441,0,0,0-3.71-3.1593h-0.3242a3.6861,3.6861,0,0,0-3.7122,3.643V420.769a3.6938,3.6938,0,0,0,3.7122,3.6751h0.3242a3.6921,3.6921,0,0,0,3.71-3.6751v-3.7735h-3.4163a1.2254,1.2254,0,1,1,0-2.4507H367.42a1.2755,1.2755,0,0,1,1.236,1.2264v4.9978A6.1512,6.1512,0,0,1,362.4721,426.8929Z"/><path class="cls-1" d="M362.4714,427.4927h-0.3231a6.7621,6.7621,0,0,1-6.7845-6.7237V410.3535a6.7623,6.7623,0,0,1,6.7845-6.7248h0.3231a6.7319,6.7319,0,0,1,6.78,5.7732l0.0047,0.2751a1.7784,1.7784,0,0,1-1.8354,1.7921,1.8154,1.8154,0,0,1-1.8284-1.5217,3.0729,3.0729,0,0,0-3.1207-2.6689h-0.3231a3.0829,3.0829,0,0,0-3.1137,3.0434V420.769a3.0992,3.0992,0,0,0,3.1137,3.0762h0.3231a3.0972,3.0972,0,0,0,3.1113-3.0762v-3.1745h-2.8164a1.8244,1.8244,0,1,1,0-3.6486h4.6541a1.8771,1.8771,0,0,1,1.8354,1.8249v4.9983A6.7621,6.7621,0,0,1,362.4714,427.4927Zm-0.3231-22.6654a5.5622,5.5622,0,0,0-5.5859,5.5262V420.769a5.5612,5.5612,0,0,0,5.5859,5.525h0.3231a5.5612,5.5612,0,0,0,5.5859-5.525v-4.9983a0.675,0.675,0,0,0-.6368-0.6262h-4.6541a0.6258,0.6258,0,1,0,0,1.2513h4.015v4.3732a4.2974,4.2974,0,0,1-4.31,4.2749h-0.3231a4.2979,4.2979,0,0,1-4.3123-4.2749V410.3219a4.2822,4.2822,0,0,1,4.3123-4.2421h0.3231a4.2519,4.2519,0,0,1,4.2983,3.64,0.6229,0.6229,0,0,0,.6508.55,0.59,0.59,0,0,0,.6368-0.5935v-0.192a5.5336,5.5336,0,0,0-5.5859-4.6576h-0.3231Z"/><path class="cls-1" d="M386.8767,416.7708l4.0364,8.35a1.226,1.226,0,0,1-1.1732,1.7723,1.1856,1.1856,0,0,1-1.0739-.7085l-4.4254-9.2209h-3.3211v8.7051a1.2361,1.2361,0,0,1-2.4721,0V405.647a1.2737,1.2737,0,0,1,1.236-1.2244h5.469a6.1511,6.1511,0,0,1,6.1822,6.1259v0.289A6.0843,6.0843,0,0,1,386.8767,416.7708Zm1.9858-6.2222a3.6921,3.6921,0,0,0-3.71-3.6751h-4.2329v7.6393h4.3626a3.5816,3.5816,0,0,0,3.58-3.6751v-0.289Z"/><path class="cls-1" d="M389.7406,427.4927a1.7767,1.7767,0,0,1-1.6083-1.0371l-4.2678-8.8927h-2.3458v8.1061a1.8364,1.8364,0,0,1-3.6709,0V405.6467a1.8769,1.8769,0,0,1,1.8354-1.8237h5.4688a6.7628,6.7628,0,0,1,6.7822,6.726v0.2891a6.6849,6.6849,0,0,1-4.221,6.2824l3.7387,7.7385A1.8252,1.8252,0,0,1,389.7406,427.4927ZM380.32,416.3642h4.2983l4.5886,9.5611a0.59,0.59,0,0,0,.5338.3687,0.6321,0.6321,0,0,0,.7023-0.6251,0.6482,0.6482,0,0,0-.0656-0.2821l-4.35-8.9992,0.6883-.1943a5.4961,5.4961,0,0,0,4.02-5.3553v-0.2891a5.5619,5.5619,0,0,0-5.5835-5.5274h-5.4688a0.6739,0.6739,0,0,0-.6368.6251V425.669a0.6369,0.6369,0,0,0,1.2736,0v-9.3047Zm4.9631-1.2525H380.32v-8.8377h4.832a4.2974,4.2974,0,0,1,4.31,4.2749v0.2891A4.1822,4.1822,0,0,1,385.2831,415.1118Zm-3.7645-1.1986h3.7645a2.9963,2.9963,0,0,0,2.98-3.075v-0.2891a3.0972,3.0972,0,0,0-3.1113-3.0762h-3.6334v6.44Z"/><path class="cls-1" d="M412.89,426.0238l-1.465-4.6426h-8.04l-1.4306,4.6426a1.24,1.24,0,0,1-2.3768-.7105l6.3463-20.2142c0.3587-1.16,2.6038-1.16,2.9624,0l6.3463,20.2142A1.2239,1.2239,0,1,1,412.89,426.0238Zm-2.6362-25.8884-5.1427,2.32a1.1675,1.1675,0,0,1-.5532.1285,1.25,1.25,0,0,1-1.2056-1.2565,1.1116,1.1116,0,0,1,.7173-1.0638l5.1083-2.3544a1.9332,1.9332,0,0,1,.5876-0.1285,1.28,1.28,0,0,1,1.2036,1.2886A1.1167,1.1167,0,0,1,410.254,400.1354Zm-2.8328,8.4783L404.167,418.93h6.476Z"/><path class="cls-1" d="M400.8023,427.5021a1.9659,1.9659,0,0,1-1.4374-.6227,1.7369,1.7369,0,0,1-.3582-1.7465l6.3467-20.2131a2.278,2.278,0,0,1,4.1063.0023l6.3444,20.2119a1.7465,1.7465,0,0,1-.3605,1.7547,1.9355,1.9355,0,0,1-1.819.5689,1.7692,1.7692,0,0,1-1.3063-1.2537l-1.3321-4.2234H403.827l-1.2993,4.22a1.7756,1.7756,0,0,1-1.3134,1.256A1.8835,1.8835,0,0,1,400.8023,427.5021Zm6.6019-22.6736a0.924,0.924,0,0,0-.906.4472l-6.3491,20.2166a0.5463,0.5463,0,0,0,.0983.5771,0.7684,0.7684,0,0,0,.7047.2177,0.58,0.58,0,0,0,.4284-0.44l1.5615-5.065h8.9243l1.5966,5.065a0.5786,0.5786,0,0,0,.4237.4413,0.7311,0.7311,0,0,0,.6742-0.2119,0.5606,0.5606,0,0,0,.1007-0.5829l-6.3467-20.2154A0.9289,0.9289,0,0,0,407.4043,404.8284Zm4.0525,14.701h-8.1072l4.0735-12.9171Zm-6.4732-1.1986h4.8437l-2.409-7.7151Zm-0.4261-15.147a1.8588,1.8588,0,0,1-1.805-1.8565,1.6983,1.6983,0,0,1,1.0816-1.6142l5.0942-2.3481a2.5384,2.5384,0,0,1,.8381-0.1838,1.8725,1.8725,0,0,1,1.8027,1.8881,1.708,1.708,0,0,1-1.0746,1.6154l-5.1364,2.3177A1.7492,1.7492,0,0,1,404.5575,403.1838Zm5.209-4.8039a1.5071,1.5071,0,0,0-.3933.0972l-5.0521,2.3306a0.5244,0.5244,0,0,0-.37.52,0.661,0.661,0,0,0,.899.59l5.1645-2.3306a0.5213,0.5213,0,0,0,.3558-0.5174A0.6892,0.6892,0,0,0,409.7664,398.38Z"/><path class="cls-1" d="M435.7325,406.8734H426.78v7.0913h6.2167a1.2254,1.2254,0,1,1,0,2.4507H426.78v9.253a1.2361,1.2361,0,0,1-2.4721,0V405.647a1.2737,1.2737,0,0,1,1.236-1.2244h10.1882A1.2254,1.2254,0,1,1,435.7325,406.8734Z"/><path class="cls-1" d="M425.5455,427.4927a1.7923,1.7923,0,0,1-1.8354-1.8237V405.6467a1.8769,1.8769,0,0,1,1.8354-1.8237h10.1862a1.8249,1.8249,0,1,1,0,3.65h-8.3531v5.8926h5.6187a1.8249,1.8249,0,1,1,0,3.65h-5.6187v8.6539A1.79,1.79,0,0,1,425.5455,427.4927Zm0-22.4711a0.6739,0.6739,0,0,0-.6368.6251V425.669a0.6357,0.6357,0,0,0,1.2712,0v-9.8525h6.8173a0.6264,0.6264,0,1,0,0-1.2525H426.18v-8.29h9.5517a0.6263,0.6263,0,1,0,0-1.2525H425.5455Z"/><path class="cls-1" d="M446.8629,426.8929a1.1882,1.1882,0,0,1-1.2381-1.2244V405.4544a1.2371,1.2371,0,0,1,2.4741,0v20.2142A1.1877,1.1877,0,0,1,446.8629,426.8929Z"/><path class="cls-1" d="M446.8636,427.4927a1.7928,1.7928,0,0,1-1.8378-1.8237V405.4547a1.8376,1.8376,0,0,1,3.6732,0V425.669A1.7923,1.7923,0,0,1,446.8636,427.4927Zm0-22.6654a0.6066,0.6066,0,0,0-.6391.6274V425.669a0.6381,0.6381,0,0,0,1.2759,0V405.4547A0.6049,0.6049,0,0,0,446.8636,404.8273Z"/><path class="cls-1" d="M464.6578,426.8929h-0.3242a6.1512,6.1512,0,0,1-6.1842-6.1239V410.3217a6.1258,6.1258,0,0,1,6.1842-6.0938h0.3242a6.1329,6.1329,0,0,1,6.1194,5.2568v0.1927a1.1542,1.1542,0,0,1-1.2036,1.1923,1.2642,1.2642,0,0,1-1.2381-1.0638,3.8125,3.8125,0,0,0-3.6777-3.1272h-0.3242a3.6861,3.6861,0,0,0-3.7122,3.643V420.769a3.6938,3.6938,0,0,0,3.7122,3.6751h0.3242a3.8125,3.8125,0,0,0,3.6777-3.1272,1.2592,1.2592,0,0,1,1.2381-1.0658,1.1559,1.1559,0,0,1,1.2036,1.1943V421.67A6.21,6.21,0,0,1,464.6578,426.8929Z"/><path class="cls-1" d="M464.6583,427.4927h-0.3254a6.7616,6.7616,0,0,1-6.7822-6.7237V410.3219a6.7463,6.7463,0,0,1,6.7822-6.6932h0.3254a6.696,6.696,0,0,1,6.712,5.772l0.007,0.2763a1.7578,1.7578,0,0,1-1.8027,1.7921,1.857,1.857,0,0,1-1.8214-1.5287,3.2032,3.2032,0,0,0-3.0949-2.6618h-0.3254a3.0809,3.0809,0,0,0-3.1113,3.0434V420.769a3.0972,3.0972,0,0,0,3.1113,3.0762h0.3254a3.1962,3.1962,0,0,0,3.09-2.649,1.8525,1.8525,0,0,1,1.8261-1.544,1.7588,1.7588,0,0,1,1.8027,1.7933V421.67A6.8447,6.8447,0,0,1,464.6583,427.4927Zm-0.3254-22.6654a5.5462,5.5462,0,0,0-5.5835,5.4946V420.769a5.5606,5.5606,0,0,0,5.5835,5.525h0.3254a5.6267,5.6267,0,0,0,5.5274-4.7162l-0.007-.1323a0.5652,0.5652,0,0,0-.604-0.5946,0.6585,0.6585,0,0,0-.6532.5946,4.381,4.381,0,0,1-4.2632,3.5983h-0.3254a4.2974,4.2974,0,0,1-4.31-4.2749V410.3219a4.2817,4.2817,0,0,1,4.31-4.2421h0.3254a4.3838,4.3838,0,0,1,4.2655,3.6053,0.667,0.667,0,0,0,.6508.5853,0.5649,0.5649,0,0,0,.604-0.5935v-0.192a5.5,5.5,0,0,0-5.52-4.6576h-0.3254Z"/><path class="cls-1" d="M493.0076,426.8929a1.1848,1.1848,0,0,1-1.1712-.8691l-1.4326-4.6426h-8.04l-1.465,4.6426a1.1493,1.1493,0,0,1-1.1388.8691,1.2117,1.2117,0,0,1-1.2685-1.1923,1.6307,1.6307,0,0,1,.0648-0.3874l6.3463-20.1821a1.6661,1.6661,0,0,1,2.9624,0l6.3463,20.1821a1.6307,1.6307,0,0,1,.0648.3874A1.2117,1.2117,0,0,1,493.0076,426.8929Zm-6.64-18.2793L483.1457,418.93h6.476Z"/><path class="cls-1" d="M493.0068,427.4927a1.7848,1.7848,0,0,1-1.7418-1.2876l-1.304-4.2245h-7.1568l-1.3344,4.2234a1.7394,1.7394,0,0,1-1.709,1.2888,1.8129,1.8129,0,0,1-1.8682-1.7921,2.0916,2.0916,0,0,1,.07-0.4893l6.3678-20.26a2.2563,2.2563,0,0,1,4.104-.0094l6.3467,20.1909a2.1649,2.1649,0,0,1,.0936.5677A1.8129,1.8129,0,0,1,493.0068,427.4927Zm-11.0828-6.7108h8.922l1.5639,5.065a0.5866,0.5866,0,0,0,.597.4472,0.6121,0.6121,0,0,0,.67-0.5935,1.3416,1.3416,0,0,0-.0445-0.2318l-6.3374-20.1569a1.0766,1.0766,0,0,0-1.8261.0117l-6.3421,20.17a1.292,1.292,0,0,0-.0351.2072,0.6121,0.6121,0,0,0,.67.5935,0.5575,0.5575,0,0,0,.5665-0.4518Zm8.5146-1.2525h-8.1072l4.0337-12.9171Zm-6.4778-1.1986h4.8437l-2.4348-7.7151Z"/></svg>