<svg id="Layer_1" data-name="Layer 1" xmlns="http://www.w3.org/2000/svg" viewBox="0 0 500 500"><defs><style>.cls-1{fill:#cdc3bb;}</style></defs><title>snig_icon_</title><path class="cls-1" d="M324.1568,305.7638L290.7229,276.356c13.7449-22.2166,12.9906-49.0882-2.1773-70.7672-15.7161-22.4658-41.8134-32.1433-68.1092-25.2535a63.4172,63.4172,0,0,0-38.9475,29.657,64.24,64.24,0,0,0-6.73,48.7,63.7081,63.7081,0,0,0,104.3281,31.6865l33.1377,29.141a8.8889,8.8889,0,0,0,5.8907,2.3294,8.496,8.496,0,0,0,2.7789-.473,9.7244,9.7244,0,0,0,6.2617-7.2251A8.7531,8.7531,0,0,0,324.1568,305.7638Z"/></svg>