<svg id="Layer_1" data-name="Layer 1" xmlns="http://www.w3.org/2000/svg" viewBox="0 0 500 500"><title>snig_icon_</title><path d="M399.6989,369.3743L356.8417,226.5172A7.143,7.143,0,0,0,350,221.4286H307.3884c4.4887-13.358,6.9-25.3278,6.9-35.7143a64.2857,64.2857,0,0,0-128.5714,0c0,10.3864,2.4118,22.3563,6.9,35.7143H150a7.1412,7.1412,0,0,0-6.8412,5.0886L100.3014,369.3743a7.1442,7.1442,0,0,0,6.8412,9.1971H392.8569A7.1447,7.1447,0,0,0,399.6989,369.3743ZM250.0023,164.2857a21.4286,21.4286,0,1,1-21.4286,21.4286A21.4313,21.4313,0,0,1,250.0023,164.2857Zm-133.26,200,38.5716-128.5714h42.6653l0.0262,0.0628a366.3328,366.3328,0,0,0,17.1552,35.498c6.3381,11.6211,13.1208,22.9248,19.9044,33.4787,2.376,3.6935,4.5837,7.0347,6.5683,9.9644,1.198,1.7683,2.0612,3.0134,2.5338,3.683a7.1425,7.1425,0,0,0,11.6708,0c0.4726-.67,1.3349-1.9148,2.5338-3.683,1.9845-2.93,4.1922-6.2709,6.5674-9.9644,6.7836-10.5539,13.5672-21.8576,19.9053-33.4787a366.52,366.52,0,0,0,17.1544-35.498l0.0262-.0628h42.66l38.5716,128.5714H116.7425Z"/></svg>