<svg id="Layer_1" data-name="Layer 1" xmlns="http://www.w3.org/2000/svg" viewBox="0 0 500 500"><defs><style>.cls-1{fill:#61b4e4;}</style></defs><title>snig_icon_</title><path class="cls-1" d="M363.8119,174.1421c-1.484-8.2615-6.255-16.6149-13.7977-24.1564-7.5428-7.5452-15.8974-12.3162-24.1613-13.7977-8.6466-1.55-16.5376.7334-22.2333,6.4291-1.3368,1.3393-155.4739,155.4727-157.5785,157.5675a9.9888,9.9888,0,0,0-2.84,5.5326l-7.3637,47.1293a9.9055,9.9055,0,0,0,8.2713,11.3227,10.0945,10.0945,0,0,0,1.5135.1165,9.8608,9.8608,0,0,0,1.5331-.119l39.7693-6.2231c9.147-1.4313,12.27-1.9206,14.1657-5.2726L357.3852,196.3755C363.0809,190.681,365.3621,182.785,363.8119,174.1421ZM319.08,206.6594L197.9228,327.8168l-25.7459-25.7435,121.1624-121.155ZM180.9118,338.828L157.5084,342.49l3.66-23.4058ZM317.633,156.6258c0.5372-.536,1.7906-1.7968,5.72-0.6917a31.2724,31.2724,0,0,1,12.716,8.1253,30.893,30.893,0,0,1,7.9426,12.4179c1.1578,4.0952-.1447,5.3964-0.6378,5.8883l-10.2827,10.2827-25.741-25.74Zm-2.6639-2.6639h0Z"/></svg>