<svg id="Layer_1" data-name="Layer 1" xmlns="http://www.w3.org/2000/svg" viewBox="0 0 500 500"><defs><style>.cls-1{fill:#7cdfa8;}.cls-2{fill:#b4ecca;}.cls-3{fill:#333;}</style></defs><title>snig_icon_</title><path class="cls-1" d="M423.2412,423.2412c95.6783-95.6783,95.6785-250.8037,0-346.482L76.7592,423.2414C172.4375,518.92,327.5629,518.9195,423.2412,423.2412Z"/><path class="cls-2" d="M76.7588,76.7588c-95.6785,95.6785-95.6783,250.8039,0,346.4822l0,0L423.2414,76.7592l0,0C327.5627-18.92,172.4373-18.92,76.7588,76.7588Z"/><path class="cls-3" d="M361.5009,332.748L318.05,294.8072c17.8631-28.663,16.8829-63.3316-2.83-91.301-20.4249-28.9844-54.3415-41.47-88.516-32.5811a82.8864,82.8864,0,1,0,76.2229,141.9734l43.0664,37.5965a11.5991,11.5991,0,0,0,7.6556,3.0053,11.1147,11.1147,0,0,0,3.6115-.61,12.5745,12.5745,0,0,0,8.1378-9.3215A11.2473,11.2473,0,0,0,361.5009,332.748ZM298.72,281.1886c-12.3466,21.0123-35.0813,31.97-59.31,28.5915-24.2309-3.3754-43.0922-20.1223-49.2258-43.7034-6.1316-23.5791,2.1907-47.3933,21.7207-62.1479A59.24,59.24,0,0,1,298.72,281.1886Z"/><path class="cls-3" d="M271.3479,212.7275a7.2287,7.2287,0,0,0-7.481-.2778,8.4825,8.4825,0,0,0-4.2326,7.0643,7.222,7.222,0,0,0,3.77,6.4571,30.4837,30.4837,0,0,1,12.3824,14.0819,23.3362,23.3362,0,0,1,.9307,16.4463,7.4242,7.4242,0,0,0,4.9768,9.6241,8.4177,8.4177,0,0,0,2.5975.4137,7.26,7.26,0,0,0,7.1079-5.2764,38.5826,38.5826,0,0,0-1.3355-27.1668A46.0561,46.0561,0,0,0,271.3479,212.7275Z"/></svg>