<svg id="Layer_1" data-name="Layer 1" xmlns="http://www.w3.org/2000/svg" viewBox="0 0 500 500"><defs><style>.cls-1{fill:#00b288;}</style></defs><title>snig_icon_</title><path class="cls-1" d="M162.9706,162.9778l161.23,53.7458L256.34,244.7021l-8.2432,3.397-3.3988,8.245-27.9837,67.8711L162.9706,162.9778m-15.8133-27.267a11.4358,11.4358,0,0,0-10.8381,15.0739l68.5582,205.678a11.4255,11.4255,0,0,0,21.4251.7115l38.2063-92.6618,92.66-38.2045a11.4256,11.4256,0,0,0-.715-21.4216L150.781,136.3246a11.5006,11.5006,0,0,0-2.3211-.5371,11.6539,11.6539,0,0,0-1.3027-.0767h0Z"/></svg>
